<?xml version="1.0" encoding="UTF-8"?>
<svg version="1.1" xmlns="http://www.w3.org/2000/svg" width="256" height="256">
<path d="M0 0 C1.1859375 -0.01289063 2.371875 -0.02578125 3.59375 -0.0390625 C14.03695178 1.7362818 20.89946541 8.19706619 28.08105469 15.49926758 C29.63846412 17.07613232 31.22343896 18.62112229 32.8125 20.16601562 C33.81687807 21.17010372 34.81954811 22.1759039 35.8203125 23.18359375 C37.17020264 24.53408813 37.17020264 24.53408813 38.54736328 25.91186523 C40.88194091 29.15569634 40.67072914 30.73137139 40.5 34.625 C43.08333333 37.625 43.08333333 37.625 46.5 39.625 C47.29212891 39.58133301 48.08425781 39.53766602 48.90039062 39.49267578 C52.60852197 39.68142552 53.80381872 41.28261605 56.40625 43.8671875 C57.31503906 44.76953125 58.22382813 45.671875 59.16015625 46.6015625 C59.86035889 47.31747559 59.86035889 47.31747559 60.57470703 48.04785156 C61.97785861 49.47744142 63.40872434 50.8796585 64.83984375 52.28125 C71.44017015 58.92838722 76.56510229 65.12560173 78.1640625 74.53125 C78.14472656 76.31015625 78.14472656 76.31015625 78.125 78.125 C78.13789063 79.3109375 78.15078125 80.496875 78.1640625 81.71875 C75.99297914 94.48982861 66.44557513 102.39123662 57.66308594 111.10888672 C56.12913631 112.64961886 54.59625079 114.19141105 53.06434631 115.73417664 C48.91670567 119.90453919 44.75349197 124.05901731 40.5865469 128.21008062 C36.22037836 132.56355586 31.86646132 136.92925664 27.51055908 141.29299927 C20.19585865 148.61678524 12.87070389 155.92999059 5.53955078 163.23730469 C-2.92851946 171.67815594 -11.37841328 180.13688222 -19.81911111 188.60509861 C-27.07632759 195.88502397 -34.34326634 203.15513648 -41.61838126 210.41717541 C-45.95928331 214.75029419 -50.29676451 219.08669225 -54.62549591 223.4319725 C-58.69524501 227.51619297 -62.77708521 231.5879346 -66.86847115 235.65047646 C-68.3654951 237.14090451 -69.85830901 238.63557538 -71.3465023 240.13482094 C-73.38330022 242.18534311 -75.43498026 244.21975137 -77.49102783 246.25094604 C-78.07228054 246.84335236 -78.65353325 247.43575868 -79.25239968 248.04611671 C-85.4238263 254.07429347 -92.23035734 257.1968726 -100.9375 257.1875 C-102.13246094 257.20941406 -103.32742187 257.23132813 -104.55859375 257.25390625 C-116.10397642 255.41167968 -123.46118103 247.40657316 -131.33203125 239.45703125 C-132.53814765 238.25429101 -133.74500476 237.05229314 -134.95256042 235.85099792 C-137.46933125 233.34156061 -139.97693478 230.82340306 -142.47827148 228.29858398 C-145.6665214 225.08184939 -148.87670109 221.88809257 -152.09413624 218.70058155 C-154.58698362 216.22590238 -157.06767661 213.73931253 -159.54498863 211.24909019 C-160.72334844 210.06742266 -161.90535694 208.88938085 -163.09122658 207.71525002 C-170.50468488 200.35915514 -177.34845124 193.39881625 -179.1640625 182.71875 C-179.15117187 181.5328125 -179.13828125 180.346875 -179.125 179.125 C-179.13789063 177.9390625 -179.15078125 176.753125 -179.1640625 175.53125 C-177.00066387 162.80537573 -167.52269078 154.93560959 -158.77075195 146.2487793 C-157.248277 144.71952166 -155.72686613 143.18920403 -154.20643616 141.65791321 C-150.0897187 137.51847391 -145.95742919 133.39492038 -141.82140756 129.27478004 C-137.48640224 124.95247035 -133.16365125 120.61793244 -128.83891296 116.28535461 C-121.57548712 109.01284294 -114.30160723 101.75091251 -107.02172852 94.49487305 C-98.61616692 86.11652032 -90.22876908 77.72030759 -81.85057861 69.31459111 C-74.6451563 62.08644861 -67.42999782 54.86813351 -60.20667428 47.65788013 C-55.89760069 43.35658491 -51.59193669 39.0520227 -47.29503822 34.73856163 C-43.25402081 30.68305672 -39.20088267 26.64006258 -35.13823509 22.60622978 C-33.65292316 21.12750562 -32.17180597 19.64455367 -30.69532776 18.15700912 C-12.52571089 -0.13614903 -12.52571089 -0.13614903 0 0 Z " fill="#E85267" transform="translate(178.5,-0.625)"/>
<path d="M0 0 C1.1859375 -0.01289063 2.371875 -0.02578125 3.59375 -0.0390625 C14.0659618 1.74121351 20.89722635 8.22099505 28.08105469 15.55419922 C29.63995137 17.14021144 31.224242 18.69735488 32.8125 20.25390625 C33.81671369 21.26141914 34.81937789 22.27047937 35.8203125 23.28125 C37.17020264 24.63959961 37.17020264 24.63959961 38.54736328 26.02539062 C40.5 28.625 40.5 28.625 40.85498047 31.39648438 C40.5 33.625 40.5 33.625 39.5 34.625 C36.77758789 34.99755859 36.77758789 34.99755859 33.5 34.625 C30.78686523 32.54541016 30.78686523 32.54541016 28.05859375 29.6640625 C27.56843277 29.15829681 27.07827179 28.65253113 26.57325745 28.13143921 C25.01301801 26.51792133 23.47432394 24.88581072 21.9375 23.25 C20.39467573 21.62404683 18.84758728 20.00279936 17.29103088 18.38998413 C15.87850337 16.92411227 14.48071024 15.4440845 13.08374023 13.96337891 C8.84990836 10.13160704 5.17738725 9.32226367 -0.4375 9.25 C-1.93603516 9.20746094 -1.93603516 9.20746094 -3.46484375 9.1640625 C-10.04223487 10.16294558 -14.58635837 15.42298192 -19.09246826 19.96350098 C-20.04746731 20.91382005 -20.04746731 20.91382005 -21.02175927 21.8833375 C-23.14525454 23.99888118 -25.26155977 26.12147063 -27.37792969 28.24414062 C-28.90222978 29.76572965 -30.4269548 31.28689309 -31.95207214 32.80766296 C-36.08657474 36.93305459 -40.21473408 41.06473947 -44.34150982 45.19785881 C-48.66040942 49.52182321 -52.984188 53.84090437 -57.30718994 58.1607666 C-64.56370211 65.41364132 -71.81598939 72.67072056 -79.06591797 79.93017578 C-87.45213877 88.32728888 -95.84555138 96.71716161 -104.24272037 105.10332537 C-111.45074225 112.3022779 -118.65486752 119.50511241 -125.85573697 126.71121931 C-130.15727739 131.0158803 -134.46016373 135.31917252 -138.76656342 139.61897278 C-142.81267634 143.65931773 -146.85388317 147.70450599 -150.89132118 151.75351906 C-152.37551802 153.24036506 -153.86142808 154.72550311 -155.3491497 156.20882225 C-157.37590775 158.23013386 -159.39643407 160.25747459 -161.41546631 162.28649902 C-162.00864489 162.87521616 -162.60182348 163.46393331 -163.21297717 164.07049036 C-167.98251772 168.88607891 -169.7866771 171.7343994 -169.8125 178.5 C-169.82925781 179.50804687 -169.84601563 180.51609375 -169.86328125 181.5546875 C-169.11476194 187.88088293 -165.57221308 191.99271369 -161.17407227 196.32324219 C-160.37838333 197.12440712 -160.37838333 197.12440712 -159.56661987 197.9417572 C-157.82384438 199.69259141 -156.0705138 201.43239997 -154.31640625 203.171875 C-153.09665159 204.39111061 -151.87741596 205.61086568 -150.65867615 206.83111572 C-148.10876677 209.38093559 -145.55378766 211.92552692 -142.99487305 214.46630859 C-139.71674004 217.72171925 -136.44983376 220.98812555 -133.18641758 224.25828171 C-130.67236175 226.77567953 -128.15334328 229.2880621 -125.63270378 231.79886627 C-124.4261169 233.00160759 -123.22087121 234.20569596 -122.0170002 235.4111557 C-120.33465268 237.09387436 -118.64595083 238.76994281 -116.95532227 240.44433594 C-116.46012589 240.94200974 -115.9649295 241.43968353 -115.45472717 241.95243835 C-110.92537863 246.41261966 -107.97120325 247.91327785 -101.625 247.9375 C-100.61695312 247.95425781 -99.60890625 247.97101563 -98.5703125 247.98828125 C-91.69046643 247.17425366 -87.52057325 243.07944515 -82.86956787 238.3755188 C-82.22881829 237.73944919 -81.5880687 237.10337957 -80.92790246 236.44803512 C-78.78817721 234.32025155 -76.65930664 232.18193489 -74.53027344 230.04345703 C-72.99632827 228.51357787 -71.46174582 226.98433745 -69.92657471 225.45568848 C-65.76285835 221.30564675 -61.60868523 217.14617349 -57.45656109 212.9845376 C-53.11112923 208.63151138 -48.75838366 204.28580844 -44.40679932 199.93893433 C-37.1014037 192.63899631 -29.80235587 185.33275602 -22.50683594 178.02294922 C-14.06909784 169.56887857 -5.62059824 161.12567802 2.83356118 152.68803132 C10.09013655 145.44506333 17.34085736 138.19627349 24.58670402 130.94257247 C28.91515941 126.60943726 33.24562275 122.27836106 37.58136749 117.95251846 C41.65601959 113.88652299 45.72328057 109.81327668 49.78491974 105.73428345 C51.27791965 104.23731203 52.7734872 102.74289647 54.27177429 101.25121689 C56.31402649 99.21714343 58.34684285 97.17408567 60.37750244 95.12844849 C60.97457197 94.53807112 61.57164151 93.94769375 62.18680406 93.33942616 C66.95939521 88.49816164 68.78598183 84.60421188 68.875 77.6875 C68.90335938 76.68847656 68.93171875 75.68945312 68.9609375 74.66015625 C67.5953122 65.66786086 58.29140506 59.48568198 51.97070312 53.70117188 C45.66723943 47.65814203 45.66723943 47.65814203 45.15087891 44.46826172 C45.42578125 42.52734375 45.42578125 42.52734375 46.5 39.625 C49.83936041 39.22133288 51.15730679 39.37407488 53.91601562 41.39404297 C54.73779297 42.21018066 55.55957031 43.02631836 56.40625 43.8671875 C57.31503906 44.76953125 58.22382813 45.671875 59.16015625 46.6015625 C59.86035889 47.31747559 59.86035889 47.31747559 60.57470703 48.04785156 C61.97785861 49.47744142 63.40872434 50.8796585 64.83984375 52.28125 C71.44017015 58.92838722 76.56510229 65.12560173 78.1640625 74.53125 C78.14472656 76.31015625 78.14472656 76.31015625 78.125 78.125 C78.13789063 79.3109375 78.15078125 80.496875 78.1640625 81.71875 C75.99297914 94.48982861 66.44557513 102.39123662 57.66308594 111.10888672 C56.12913631 112.64961886 54.59625079 114.19141105 53.06434631 115.73417664 C48.91670567 119.90453919 44.75349197 124.05901731 40.5865469 128.21008062 C36.22037836 132.56355586 31.86646132 136.92925664 27.51055908 141.29299927 C20.19585865 148.61678524 12.87070389 155.92999059 5.53955078 163.23730469 C-2.92851946 171.67815594 -11.37841328 180.13688222 -19.81911111 188.60509861 C-27.07632759 195.88502397 -34.34326634 203.15513648 -41.61838126 210.41717541 C-45.95928331 214.75029419 -50.29676451 219.08669225 -54.62549591 223.4319725 C-58.69524501 227.51619297 -62.77708521 231.5879346 -66.86847115 235.65047646 C-68.3654951 237.14090451 -69.85830901 238.63557538 -71.3465023 240.13482094 C-73.38330022 242.18534311 -75.43498026 244.21975137 -77.49102783 246.25094604 C-78.07228054 246.84335236 -78.65353325 247.43575868 -79.25239968 248.04611671 C-85.4238263 254.07429347 -92.23035734 257.1968726 -100.9375 257.1875 C-102.13246094 257.20941406 -103.32742187 257.23132813 -104.55859375 257.25390625 C-116.10397642 255.41167968 -123.46118103 247.40657316 -131.33203125 239.45703125 C-132.53814765 238.25429101 -133.74500476 237.05229314 -134.95256042 235.85099792 C-137.46933125 233.34156061 -139.97693478 230.82340306 -142.47827148 228.29858398 C-145.6665214 225.08184939 -148.87670109 221.88809257 -152.09413624 218.70058155 C-154.58698362 216.22590238 -157.06767661 213.73931253 -159.54498863 211.24909019 C-160.72334844 210.06742266 -161.90535694 208.88938085 -163.09122658 207.71525002 C-170.50468488 200.35915514 -177.34845124 193.39881625 -179.1640625 182.71875 C-179.15117187 181.5328125 -179.13828125 180.346875 -179.125 179.125 C-179.13789063 177.9390625 -179.15078125 176.753125 -179.1640625 175.53125 C-177.00066387 162.80537573 -167.52269078 154.93560959 -158.77075195 146.2487793 C-157.248277 144.71952166 -155.72686613 143.18920403 -154.20643616 141.65791321 C-150.0897187 137.51847391 -145.95742919 133.39492038 -141.82140756 129.27478004 C-137.48640224 124.95247035 -133.16365125 120.61793244 -128.83891296 116.28535461 C-121.57548712 109.01284294 -114.30160723 101.75091251 -107.02172852 94.49487305 C-98.61616692 86.11652032 -90.22876908 77.72030759 -81.85057861 69.31459111 C-74.6451563 62.08644861 -67.42999782 54.86813351 -60.20667428 47.65788013 C-55.89760069 43.35658491 -51.59193669 39.0520227 -47.29503822 34.73856163 C-43.25402081 30.68305672 -39.20088267 26.64006258 -35.13823509 22.60622978 C-33.65292316 21.12750562 -32.17180597 19.64455367 -30.69532776 18.15700912 C-12.52571089 -0.13614903 -12.52571089 -0.13614903 0 0 Z " fill="#070303" transform="translate(178.5,-0.625)"/>
<path d="M0 0 C1.51207031 -0.02513672 1.51207031 -0.02513672 3.0546875 -0.05078125 C9.28695119 0.686624 13.08892419 3.92745452 17.27734375 8.3828125 C18.22810269 9.37149101 19.17928752 10.35976012 20.13085938 11.34765625 C21.60239625 12.8936671 23.06865167 14.44407313 24.52709961 16.00244141 C25.95129848 17.51766859 27.39395196 19.01331285 28.83984375 20.5078125 C29.68667725 21.40516113 30.53351074 22.30250977 31.40600586 23.22705078 C34.69335507 25.74842431 37.05436533 25.95352155 41.125 26.3125 C43.12109375 27.765625 43.12109375 27.765625 44.5625 29.5625 C45.30306641 30.43648437 45.30306641 30.43648437 46.05859375 31.328125 C47.125 33.3125 47.125 33.3125 46.90893555 35.62768555 C47.21670357 39.45200747 48.90647612 40.63500446 51.6484375 43.25390625 C52.586875 44.16720703 53.5253125 45.08050781 54.4921875 46.02148438 C55.49404368 46.97344406 56.49665605 47.92460852 57.5 48.875 C59.45221049 50.74438752 61.39497102 52.62276408 63.3359375 54.50390625 C64.20524902 55.33092041 65.07456055 56.15793457 65.97021484 57.01000977 C69.67680269 60.97067484 70.41696999 63.80863789 70.4375 69.1875 C70.46263672 70.69957031 70.46263672 70.69957031 70.48828125 72.2421875 C69.67196949 79.14133849 65.55398318 83.31718455 60.83755493 87.980896 C60.19740177 88.62572913 59.5572486 89.27056227 58.89769685 89.93493581 C56.75609447 92.08848062 54.60395705 94.2311709 52.45166016 96.37402344 C50.91192889 97.91782067 49.37283638 99.46225521 47.83433533 101.00727844 C43.65743528 105.19785354 39.47110284 109.37888525 35.28260851 113.557868 C30.90155518 117.93132717 26.52782488 122.31209985 22.15292358 126.69171143 C14.8059072 134.04418547 7.45258826 141.39031173 0.09570312 148.73291016 C-8.41290163 157.22518238 -16.91062774 165.72820747 -25.4028095 174.236902 C-32.69248627 181.54018601 -39.98798482 188.83761573 -47.28839457 196.13017106 C-51.64947544 200.48657204 -56.00849728 204.8449813 -60.36228561 209.20867157 C-64.45454584 213.30958823 -68.554057 217.4031146 -72.65931511 221.4910183 C-74.16596193 222.99369351 -75.67005266 224.49893652 -77.1714077 226.00689888 C-79.21861805 228.06228755 -81.27481344 230.10824247 -83.33358765 232.15203857 C-83.92785596 232.75299906 -84.52212428 233.35395954 -85.13440073 233.97313094 C-89.98783144 238.75814781 -93.87657731 240.59823459 -100.8125 240.6875 C-101.81152344 240.71585938 -102.81054688 240.74421875 -103.83984375 240.7734375 C-110.01623781 239.8354523 -114.30948346 235.17425074 -118.57324219 230.88891602 C-119.37440712 230.09541748 -119.37440712 230.09541748 -120.1917572 229.28588867 C-121.94028718 227.55115994 -123.68138955 225.80920344 -125.421875 224.06640625 C-126.64140338 222.85076849 -127.86115383 221.63535346 -129.08111572 220.42015076 C-131.6295937 217.87911348 -134.17418897 215.33426292 -136.71630859 212.78686523 C-139.9717265 209.52563936 -143.23840041 206.27595248 -146.50828171 203.02923679 C-149.02710471 200.52515 -151.53896207 198.01416588 -154.04886627 195.5011425 C-155.25058666 194.29993485 -156.45466693 193.10108321 -157.6611557 191.90466499 C-159.34615313 190.2320194 -161.02131241 188.5500893 -162.69433594 186.86547852 C-163.19200974 186.37544846 -163.68968353 185.8854184 -164.20243835 185.38053894 C-168.78011535 180.73257897 -170.16703217 176.82160047 -170.25 170.375 C-170.29253906 168.87646484 -170.29253906 168.87646484 -170.3359375 167.34765625 C-169.3357233 160.76150005 -164.0447488 156.19405539 -159.49853516 151.68206787 C-158.86090555 151.04131829 -158.22327595 150.4005687 -157.56632423 149.74040246 C-155.43696146 147.60308753 -153.30055176 145.47296284 -151.1640625 143.34277344 C-149.63262137 141.80862127 -148.10160583 140.27404417 -146.57098389 138.73907471 C-142.41873382 134.57771337 -138.26018997 130.42269549 -134.1002121 126.26906109 C-129.74822056 121.9221342 -125.40111208 117.57032849 -121.05322266 113.21929932 C-113.75326954 105.9157087 -106.44911172 98.61634301 -99.14257812 91.31933594 C-90.69093352 82.87858359 -82.24652907 74.43063935 -73.80583382 65.97893882 C-66.56017252 58.72420824 -59.31062929 51.47337414 -52.05781364 44.22579598 C-47.72520698 39.89630994 -43.39396912 35.56547779 -39.06622314 31.23113251 C-34.99961338 27.15875488 -30.92816033 23.09128295 -26.85288239 19.02758026 C-25.35636101 17.5337081 -23.8615477 16.03812264 -22.36855316 14.54072571 C-20.33410448 12.50083083 -18.29362642 10.46716664 -16.25146484 8.43499756 C-15.36255271 7.53939326 -15.36255271 7.53939326 -14.45568275 6.62569594 C-9.62775933 1.8436455 -6.78285417 0.02588876 0 0 Z M-25.62866211 28.93676758 C-27.11567879 30.42242771 -28.60290779 31.90787536 -30.09033203 33.39312744 C-34.11072853 37.4089821 -38.12797615 41.42797276 -42.14451289 45.44768739 C-46.35058468 49.65629675 -50.55910228 53.86245921 -54.76722717 58.0690155 C-61.82586547 65.12583739 -68.88239873 72.18475907 -75.93774414 79.24487305 C-84.10210109 87.41468425 -92.27007136 95.58086968 -100.4399032 103.7452057 C-107.455874 110.75664539 -114.46990284 117.77002327 -121.48229796 124.78503913 C-125.67023225 128.97453457 -129.85884443 133.16334626 -134.04920769 137.35041237 C-137.9822705 141.28059609 -141.9128973 145.21319966 -145.8416214 149.14772034 C-147.28679804 150.59422382 -148.73283482 152.03986852 -150.17977333 153.4846096 C-152.14750679 155.44962896 -154.1121635 157.41767252 -156.07603455 159.3865509 C-156.65519794 159.96348357 -157.23436133 160.54041625 -157.83107513 161.13483173 C-161.75380842 164.96313957 -161.75380842 164.96313957 -163.1875 170.0625 C-162.58618396 176.31618678 -157.97978582 180.45737456 -153.69506836 184.73535156 C-153.19211746 185.24020081 -152.68916656 185.74505005 -152.17097473 186.26519775 C-150.52376165 187.91608575 -148.86951272 189.55971281 -147.21484375 191.203125 C-146.06152956 192.35524573 -144.90858628 193.50773786 -143.7559967 194.6605835 C-141.34749434 197.06752683 -138.93568521 199.47108844 -136.52124023 201.87207031 C-133.42698066 204.94929315 -130.33939243 208.0331055 -127.25401974 211.11923599 C-124.87715418 213.49582973 -122.49769229 215.86980925 -120.117342 218.24291229 C-118.97765992 219.3794142 -117.83858073 220.51652101 -116.70011711 221.65424347 C-115.11108846 223.24110437 -113.51881094 224.82462952 -111.92553711 226.40722656 C-110.56796547 227.75908051 -110.56796547 227.75908051 -109.18296814 229.13824463 C-105.99985212 232.24274248 -105.99985212 232.24274248 -101.88044643 233.52150917 C-95.11496307 233.00061052 -91.90152539 230.47822121 -87.27563477 225.70068359 C-86.57527603 225.00952454 -85.8749173 224.31836548 -85.15333557 223.60626221 C-82.85425353 221.32702159 -80.58524802 219.02025163 -78.31640625 216.7109375 C-76.72119076 215.11349116 -75.12456513 213.51745187 -73.52659607 211.92276001 C-70.18640793 208.5808308 -66.86031398 205.22566797 -63.54418945 201.85986328 C-59.29693709 197.55022167 -55.02151753 193.26992083 -50.73585606 188.99851036 C-47.43790271 185.70697343 -44.15267687 182.40297339 -40.87141228 179.09480667 C-39.2994213 177.51195079 -37.72413014 175.93236527 -36.1454792 174.35615158 C-33.94052524 172.1497678 -31.7526024 169.92778677 -29.56860352 167.70068359 C-28.9166803 167.0541684 -28.26475708 166.4076532 -27.59307861 165.74154663 C-23.69501323 161.72282332 -22.01650735 158.79756723 -20.875 153.3125 C-19.6875 151.5 -19.6875 151.5 -17.875 150.3125 C-16.83689178 150.0979567 -15.79878357 149.88341339 -14.72921753 149.66236877 C-9.83317089 148.29255541 -6.90024327 145.06122609 -3.39501953 141.52709961 C-2.68359299 140.82925354 -1.97216644 140.13140747 -1.23918152 139.41241455 C1.10103976 137.10939252 3.42226646 134.78830161 5.7421875 132.46484375 C7.36595344 130.85206937 8.990239 129.23981801 10.61502075 127.62806702 C14.01436973 124.2496096 17.40376149 120.86151937 20.78710938 117.46704102 C25.11976993 113.12268514 29.48131922 108.80868103 33.85149956 104.50211239 C37.21288525 101.18134419 40.55565874 97.84231617 43.89340591 94.49780464 C45.49387192 92.89954271 47.10068108 91.30760623 48.71392441 89.72224236 C50.96936239 87.50135232 53.19782629 85.25640739 55.42138672 83.00366211 C56.08939804 82.35655777 56.75740936 81.70945343 57.44566345 81.04273987 C61.33829489 77.0329543 63.08498071 73.94474643 63.30288315 68.28533649 C63.05766926 65.5657596 62.362313 64.34826037 60.39135742 62.46435547 C59.41264175 61.48399323 59.41264175 61.48399323 58.41415405 60.48382568 C57.2810228 59.40901947 57.2810228 59.40901947 56.125 58.3125 C54.37999961 56.52286397 52.63707425 54.73120332 50.89575195 52.93798828 C48.89123966 50.91328426 46.87720078 48.8981542 44.86328125 46.8828125 C43.78420534 45.80051633 42.70520171 44.71814808 41.62626648 43.63571167 C39.37980433 41.3833029 37.13132718 39.13292824 34.8815918 36.88378906 C32.00160974 34.00390928 29.12860932 31.1171693 26.25726032 28.22868538 C24.03790961 25.99822255 21.8140353 23.77231299 19.58885765 21.54766464 C18.52712438 20.48475344 17.46700737 19.42022517 16.40856361 18.35403824 C14.93243727 16.86811231 13.45010735 15.38865824 11.96606445 13.91064453 C11.1255806 13.06873566 10.28509674 12.22682678 9.41914368 11.35940552 C6.47582012 8.73328175 4.21811273 7.53609124 0.375 6.75 C-9.25934947 8.41748356 -18.87572393 22.17346373 -25.62866211 28.93676758 Z " fill="#E96C7D" transform="translate(177.875,7.6875)"/>
<path d="M0 0 C4.41068826 2.60716905 7.92020938 5.67172876 11.53051758 9.28759766 C12.04672668 9.80190842 12.56293579 10.31621918 13.0947876 10.84611511 C14.78294702 12.5305992 16.46384801 14.22212171 18.14453125 15.9140625 C19.32146796 17.09219247 20.49877584 18.26995175 21.67643738 19.44735718 C24.13465501 21.90713382 26.58949124 24.37021847 29.04174805 26.8359375 C32.1885625 29.99980647 35.3419854 33.15698699 38.49771595 36.31196022 C40.92488156 38.73939727 43.34943611 41.16942783 45.77310753 43.60035324 C46.93555317 44.7659842 48.09860825 45.93100772 49.2622776 47.09541702 C50.88287301 48.71817371 52.50013715 50.34417565 54.11645508 51.97119141 C55.49828728 53.3587413 55.49828728 53.3587413 56.90803528 54.77432251 C59.93682947 57.99670909 59.93682947 57.99670909 60.11892319 60.88876915 C59.71697182 67.85043996 57.05985581 71.08242217 52.17285156 75.83056641 C51.45897278 76.55525116 50.74509399 77.27993591 50.00958252 78.02658081 C47.65596091 80.40512148 45.27466448 82.75354121 42.890625 85.1015625 C41.24361851 86.748879 39.59794584 88.39753006 37.95355225 90.04745483 C34.50923886 93.49453334 31.05142355 96.92727591 27.58300781 100.35009766 C23.13232789 104.74387447 18.71361279 109.16823775 14.30405045 113.60323524 C10.91297456 117.00819794 7.50735651 120.39829807 4.0969162 123.78385544 C2.46126683 125.41045911 0.82980198 127.04128157 -0.79741669 128.67631912 C-3.06902971 130.95373397 -5.35901932 133.21084799 -7.65527344 135.46337891 C-8.32768066 136.14478943 -9.00008789 136.82619995 -9.69287109 137.52825928 C-11.40657578 139.18791436 -12.99876397 140.70174613 -15 142 C-17.95904541 141.90853882 -17.95904541 141.90853882 -20 141 C-20.6633215 139.19879818 -20.6633215 139.19879818 -21 137 C-19.99859715 135.39732456 -19.99859715 135.39732456 -18.38685608 133.81922913 C-17.78241165 133.21513718 -17.17796722 132.61104523 -16.5552063 131.98864746 C-15.87835785 131.33763062 -15.2015094 130.68661377 -14.50415039 130.01586914 C-13.80203934 129.32105942 -13.09992828 128.62624969 -12.37654114 127.91038513 C-10.84704938 126.39995317 -9.31180831 124.89532651 -7.77162361 123.39579964 C-5.33619558 121.02399498 -2.91656221 118.6370824 -0.50059509 116.24546814 C5.50385811 110.30800335 11.53497264 104.3978509 17.56524658 98.4866333 C22.65608158 93.49430379 27.73667792 88.49197742 32.80395699 83.47573662 C35.19161648 81.12056745 37.59380788 78.7809188 39.99681091 76.44142151 C41.45686002 74.99953246 42.9162132 73.55693827 44.37475586 72.11352539 C45.04958008 71.46453278 45.7244043 70.81554016 46.41967773 70.1468811 C49.8600807 66.74898643 49.8600807 66.74898643 51.70172119 62.38348389 C50.69596751 58.96731558 48.90611331 57.27034061 46.39770508 54.75073242 C45.90830444 54.25257019 45.41890381 53.75440796 44.91467285 53.2411499 C43.2953046 51.59979548 41.6583512 49.977385 40.01953125 48.35546875 C38.88734365 47.21991282 37.75589915 46.08361555 36.62516785 44.9466095 C34.25319586 42.56726721 31.87241874 40.19720024 29.48510742 37.83325195 C26.42578721 34.80241892 23.38946294 31.74969163 20.35937977 28.68966198 C18.02724112 26.33945505 15.68332324 24.00128851 13.33566856 21.66658974 C12.21125856 20.54551501 11.09055063 19.42071451 9.97364235 18.29216576 C8.41063218 16.71645524 6.83248417 15.15766616 5.24926758 13.60229492 C3.90690788 12.26590218 3.90690788 12.26590218 2.53742981 10.9025116 C0.2090999 8.87826241 0.2090999 8.87826241 -2.26035309 8.52253914 C-6.36779308 9.23837658 -8.55677176 11.86742524 -11.3717804 14.73686218 C-12.30923852 15.66262038 -12.30923852 15.66262038 -13.26563519 16.60708076 C-15.36274869 18.68420482 -17.44148376 20.7788027 -19.52075195 22.8737793 C-21.01797151 24.3642259 -22.51625315 25.85360624 -24.01551819 27.34199524 C-28.0888626 31.392502 -32.14618004 35.45871904 -36.20019174 39.52856421 C-40.43948446 43.78049256 -44.69093631 48.02023417 -48.94047546 52.26191711 C-56.07554512 59.38788344 -63.19999202 66.52434318 -70.31860352 73.66674805 C-78.55550931 81.93086609 -86.81027362 90.17681675 -95.07454711 98.41355962 C-102.16235978 105.47870193 -109.24040613 112.55351743 -116.31034249 119.63654834 C-120.53608613 123.87009778 -124.76516052 128.10017115 -129.00304604 132.32156944 C-132.98620633 136.29031472 -136.95699003 140.27103733 -140.91844749 144.26144218 C-142.37667235 145.72629356 -143.83919712 147.18687847 -145.30622864 148.64291 C-147.30362914 150.62670685 -149.28508014 152.62516282 -151.26313782 154.6282196 C-151.85115136 155.20507954 -152.4391649 155.78193947 -153.04499704 156.37628001 C-155.38481566 158.7740559 -156.89314 160.38684256 -157.47746086 163.73964691 C-156.75066584 167.18037578 -154.85931459 168.77666706 -152.39770508 171.24926758 C-151.90830444 171.74742981 -151.41890381 172.24559204 -150.91467285 172.7588501 C-149.2953046 174.40020452 -147.6583512 176.022615 -146.01953125 177.64453125 C-144.88734365 178.78008718 -143.75589915 179.91638445 -142.62516785 181.0533905 C-140.25319586 183.43273279 -137.87241874 185.80279976 -135.48510742 188.16674805 C-132.42578721 191.19758108 -129.38946294 194.25030837 -126.35937977 197.31033802 C-124.02724112 199.66054495 -121.68332324 201.99871149 -119.33566856 204.33341026 C-118.21125856 205.45448499 -117.09055063 206.57928549 -115.97364235 207.70783424 C-114.41063218 209.28354476 -112.83248417 210.84233384 -111.24926758 212.39770508 C-110.35436111 213.28863358 -109.45945465 214.17956207 -108.53742981 215.0974884 C-106.17554088 217.10281576 -106.17554088 217.10281576 -103.6050415 217.69024658 C-99.39040733 216.57351319 -97.03424815 213.64401218 -94.07006836 210.55834961 C-93.39301346 209.87399338 -92.71595856 209.18963715 -92.01838684 208.48454285 C-90.54996933 206.99709711 -89.08735701 205.50390327 -87.62989616 204.00572014 C-85.32554238 201.63764693 -83.00600666 199.28546347 -80.68177795 196.93690491 C-75.75293313 191.95087138 -70.8439064 186.94560226 -65.9375 181.9375 C-60.24982348 176.13202603 -54.55441617 170.33461463 -48.83755684 164.55786324 C-46.54716706 162.23494856 -44.27228602 159.89753586 -41.99754333 157.55931091 C-40.59928177 156.14289449 -39.20031786 154.72717095 -37.80053711 153.31225586 C-37.16822174 152.65410889 -36.53590637 151.99596191 -35.88442993 151.31787109 C-35.00353447 150.43644691 -35.00353447 150.43644691 -34.10484314 149.53721619 C-33.59882033 149.02009032 -33.09279753 148.50296446 -32.5714407 147.97016811 C-31 147 -31 147 -28.8059473 147.34142399 C-28.20998469 147.55875407 -27.61402208 147.77608416 -27 148 C-26.10293579 150.0524292 -26.10293579 150.0524292 -26 153 C-27.74959113 155.72628709 -30.05459424 157.89392528 -32.35302734 160.16113281 C-33.04068176 160.86251373 -33.72833618 161.56389465 -34.43682861 162.28652954 C-36.72130718 164.6076984 -39.02738085 166.90591899 -41.3359375 169.203125 C-42.93080155 170.80710785 -44.52491818 172.41183418 -46.11831665 174.01727295 C-49.46616516 177.38301578 -52.82517893 180.73711802 -56.19189453 184.08398438 C-60.50104955 188.37020108 -64.77776081 192.68721326 -69.04610252 197.01402664 C-72.3332258 200.33789035 -75.63882497 203.64288423 -78.9500618 206.94271088 C-80.53422258 208.52656518 -82.112197 210.11663253 -83.68375778 211.71298981 C-85.88814789 213.9472156 -88.11663102 216.15431898 -90.35302734 218.35644531 C-90.99549408 219.01824799 -91.63796082 219.68005066 -92.29989624 220.36190796 C-96.25282478 224.18936404 -99.38028471 226.02023094 -104.96204567 226.23933601 C-108.17647833 225.86183516 -109.64372722 224.54668455 -111.86328125 222.2512207 C-112.69939941 221.41620026 -113.53551758 220.58117981 -114.39697266 219.72085571 C-115.25597168 218.82297333 -116.1149707 217.92509094 -117 217 C-118.80345009 215.23982595 -120.60950953 213.48232203 -122.41796875 211.72729492 C-124.34399365 209.81442939 -126.26734385 207.89919405 -128.1875 205.98046875 C-129.22209881 204.94909342 -130.25676819 203.91778888 -131.29150391 202.8865509 C-133.43779379 200.74618886 -135.58206881 198.60383196 -137.72509766 196.46020508 C-140.46815855 193.71704162 -143.21809567 190.98088109 -145.96974182 188.24633312 C-148.09897467 186.12820958 -150.22365642 184.00556603 -152.34707642 181.88161659 C-153.35974765 180.87012227 -154.37403365 179.86024183 -155.38998413 178.85204124 C-156.80379444 177.44803118 -158.21065229 176.0370306 -159.6171875 174.62573242 C-160.41753418 173.82681076 -161.21788086 173.0278891 -162.04248047 172.20475769 C-164.61464646 169.30772262 -165.78979667 167.02766072 -166.5625 163.25 C-164.89501644 153.61565053 -151.13903627 143.99927607 -144.37573242 137.24633789 C-142.89007229 135.75932121 -141.40462464 134.27209221 -139.91937256 132.78466797 C-135.9035179 128.76427147 -131.88452724 124.74702385 -127.86481261 120.73048711 C-123.65620325 116.52441532 -119.45004079 112.31589772 -115.2434845 108.10777283 C-108.18666261 101.04913453 -101.12774093 93.99260127 -94.06762695 86.93725586 C-85.89781575 78.77289891 -77.73163032 70.60492864 -69.5672943 62.4350968 C-62.55585461 55.419126 -55.54247673 48.40509716 -48.52746087 41.39270204 C-44.33796543 37.20476775 -40.14915374 33.01615557 -35.96208763 28.82579231 C-32.03190391 24.8927295 -28.09930034 20.9621027 -24.16477966 17.0333786 C-22.71827618 15.58820196 -21.27263148 14.14216518 -19.8278904 12.69522667 C-17.86287104 10.72749321 -15.89482748 8.7628365 -13.9259491 6.79896545 C-13.34901643 6.21980206 -12.77208375 5.64063867 -12.17766827 5.04392487 C-7.97981547 0.86689728 -6.01804002 -0.57865769 0 0 Z " fill="#020001" transform="translate(181,15)"/>
<path d="M0 0 C2.47439098 0.79842663 2.47439098 0.79842663 8.47439098 7.79842663 C-43.33560902 59.60842663 -95.14560902 111.41842663 -148.52560902 164.79842663 C-155.52560902 158.79842663 -155.52560902 158.79842663 -156.32403564 156.32403564 C-155.11330814 152.4942231 -152.5501693 150.1353182 -149.75078297 147.38868237 C-148.81889944 146.44509891 -148.81889944 146.44509891 -147.86818999 145.48245317 C-145.77724775 143.37152077 -143.66882781 141.27896467 -141.56003284 139.1858778 C-140.05973415 137.67880619 -138.56050171 136.17067247 -137.06226063 134.66155529 C-132.98489576 130.56135238 -128.89181909 126.47717586 -124.79511571 122.3963058 C-120.51516028 118.12898579 -116.24739126 113.84950679 -111.97768116 109.57194042 C-104.80463657 102.38979245 -97.62109801 95.21826695 -90.43161488 88.05257702 C-82.1129656 79.76114 -73.81248269 71.45184345 -65.52120858 63.1330387 C-58.40935754 55.99851746 -51.2878332 48.87376202 -44.15809363 41.75711709 C-39.89659864 37.50342799 -35.63857945 33.24640744 -31.3892355 28.98057652 C-27.39422576 24.971152 -23.38723784 20.9741023 -19.37056828 16.98638058 C-17.89604146 15.51848042 -16.42578147 14.04628022 -14.96007442 12.5695734 C-12.96314161 10.55903747 -10.95154634 8.56444602 -8.93535328 6.57325268 C-8.3546024 5.98134819 -7.77385152 5.3894437 -7.17550212 4.77960271 C-4.91334908 2.57177793 -3.03887274 0.96068588 0 0 Z " fill="#E2374E" transform="translate(178.52560901641846,22.201573371887207)"/>
<path d="M0 0 C4.39321841 3.2216935 8.08118481 7.1073059 11.8125 11.0625 C9.68469421 13.40308637 7.69687779 14.76950306 4.8125 16.0625 C4.35359375 15.58039062 3.8946875 15.09828125 3.421875 14.6015625 C2.80828125 13.96992188 2.1946875 13.33828125 1.5625 12.6875 C0.95921875 12.06101562 0.3559375 11.43453125 -0.265625 10.7890625 C-3.00477247 8.32828367 -5.34361735 7.23511236 -8.9375 6.5 C-18.54269913 8.16243831 -28.11497389 21.85017169 -34.84936523 28.5949707 C-36.32652983 30.07077874 -37.80390674 31.54637429 -39.28147888 33.02177429 C-43.27501662 37.01077045 -47.26540574 41.00290224 -51.2550838 44.9957583 C-55.43312831 49.17634049 -59.61361877 53.35447567 -63.79371643 57.53300476 C-70.80527626 64.54274823 -77.81473113 71.55459137 -84.82299805 78.56762695 C-92.9328234 86.68290664 -101.04626214 94.79456039 -109.16156238 102.90436488 C-116.13082445 109.86909582 -123.09814453 116.83576496 -130.06383091 123.80407208 C-134.22381954 127.96562185 -138.384486 132.12648788 -142.54690361 136.28560829 C-146.45370163 140.18952719 -150.35806353 144.09586594 -154.26052284 148.00412178 C-155.69602415 149.44094991 -157.13238557 150.87691929 -158.56964874 152.31198502 C-160.52424511 154.26386722 -162.47576446 156.21877356 -164.42649841 158.17451477 C-165.28940708 159.03407736 -165.28940708 159.03407736 -166.16974825 159.91100484 C-170.075999 163.7280004 -170.075999 163.7280004 -171.5 168.8125 C-170.90073332 175.04487344 -166.12889169 179.4642097 -162.1875 184.0625 C-163.5075 186.0425 -164.8275 188.0225 -166.1875 190.0625 C-177.15983202 181.14550395 -177.15983202 181.14550395 -179.1875 175.0625 C-179.35763321 173.12967522 -179.45364133 171.18974427 -179.5 169.25 C-179.55607422 167.72439453 -179.55607422 167.72439453 -179.61328125 166.16796875 C-178.70265365 159.52623537 -173.37920583 154.96584712 -168.81103516 150.43206787 C-168.17340555 149.79131829 -167.53577595 149.1505687 -166.87882423 148.49040246 C-164.74946146 146.35308753 -162.61305176 144.22296284 -160.4765625 142.09277344 C-158.94512137 140.55862127 -157.41410583 139.02404417 -155.88348389 137.48907471 C-151.73123382 133.32771337 -147.57268997 129.17269549 -143.4127121 125.01906109 C-139.06072056 120.6721342 -134.71361208 116.32032849 -130.36572266 111.96929932 C-123.06576954 104.6657087 -115.76161172 97.36634301 -108.45507812 90.06933594 C-100.00343352 81.62858359 -91.55902907 73.18063935 -83.11833382 64.72893882 C-75.87267252 57.47420824 -68.62312929 50.22337414 -61.37031364 42.97579598 C-57.03770698 38.64630994 -52.70646912 34.31547779 -48.37872314 29.98113251 C-44.31211338 25.90875488 -40.24066033 21.84128295 -36.16538239 17.77758026 C-34.66886101 16.2837081 -33.1740477 14.78812264 -31.68105316 13.29072571 C-29.64660448 11.25083083 -27.60612642 9.21716664 -25.56396484 7.18499756 C-24.67505271 6.28939326 -24.67505271 6.28939326 -23.76818275 5.37569594 C-16.74373152 -1.58201178 -9.59842874 -2.82306728 0 0 Z " fill="#E35064" transform="translate(187.1875,8.9375)"/>
<path d="M0 0 C5.64951082 3.69897987 8.63723139 8.16169418 10.75 14.5 C11.44502349 21.45023486 9.4033314 26.88710766 5.32421875 32.44140625 C3.8125 34.125 3.8125 34.125 0.75 36.5 C-4.12072321 36.4408125 -6.76964514 33.59372514 -10.0234375 30.328125 C-10.55143951 29.80869324 -11.07944153 29.28926147 -11.6234436 28.75408936 C-12.73271777 27.65627008 -13.83683 26.55321339 -14.93603516 25.4453125 C-16.62321175 23.75179497 -18.33534266 22.08670054 -20.05078125 20.421875 C-21.1266189 19.35058165 -22.20089384 18.27771617 -23.2734375 17.203125 C-23.78788422 16.70709778 -24.30233093 16.21107056 -24.83236694 15.70001221 C-26.23974609 14.25488281 -26.23974609 14.25488281 -28.25 11.5 C-28.14961284 8.25018343 -27.68917436 7.01202805 -25.578125 4.55078125 C-17.40763117 -2.2835604 -10.00462707 -5.48688936 0 0 Z " fill="#050202" transform="translate(190.25,57.5)"/>
<path d="M0 0 C3.79259576 2.04216695 7.00344184 4.11780358 9 8 C9.26274852 11.7441664 9.18823797 14.43528609 8 18 C8.90363281 18.12117188 9.80726563 18.24234375 10.73828125 18.3671875 C11.91777344 18.53476563 13.09726563 18.70234375 14.3125 18.875 C15.48425781 19.03742188 16.65601563 19.19984375 17.86328125 19.3671875 C21 20 21 20 24 22 C23.125 26.875 23.125 26.875 22 28 C15.9609154 28.2625689 10.0045104 27.60805169 4 27 C4.51691406 27.51949219 5.03382813 28.03898437 5.56640625 28.57421875 C6.22511719 29.27160156 6.88382813 29.96898438 7.5625 30.6875 C8.22378906 31.37199219 8.88507813 32.05648437 9.56640625 32.76171875 C11 35 11 35 10.71484375 37.76953125 C10 40 10 40 8.38208008 40.84057617 C6 41 6 41 3.14331055 38.7902832 C2.04420468 37.72426988 0.95951085 36.64327163 -0.11328125 35.55078125 C-0.97399483 34.69724312 -0.97399483 34.69724312 -1.85209656 33.82646179 C-3.06258662 32.61937601 -4.26677785 31.40594571 -5.46508789 30.18676758 C-7.30558368 28.31951687 -9.17118717 26.48040162 -11.04101562 24.64257812 C-12.21254406 23.46774569 -13.38252054 22.29136319 -14.55078125 21.11328125 C-15.11211258 20.56207108 -15.67344391 20.0108609 -16.25178528 19.44294739 C-20.00540969 15.57279819 -20.00540969 15.57279819 -19.97900391 12.77685547 C-18.4439049 9.9907082 -16.33662997 8.02137517 -14.0625 5.8125 C-13.16660156 4.93207031 -12.27070313 4.05164063 -11.34765625 3.14453125 C-7.53996081 -0.333713 -5.13640019 -0.42803335 0 0 Z " fill="#080303" transform="translate(142,93)"/>
<path d="M0 0 C3.10352458 1.60923497 5.21701424 3.00347267 7.375 5.75 C8.33543224 9.20755605 8.57162933 12.47495245 8 16 C6.125 19.25 6.125 19.25 4 22 C3.3106098 23.32172742 2.63889561 24.65313898 2 26 C2.5775 26.51949219 3.155 27.03898437 3.75 27.57421875 C4.4925 28.27160156 5.235 28.96898437 6 29.6875 C6.7425 30.37199219 7.485 31.05648437 8.25 31.76171875 C10 34 10 34 10.3125 36.70703125 C10 39 10 39 9 40 C6.79614258 40.37963867 6.79614258 40.37963867 4 40 C1.87100877 38.36812982 0.12196194 36.8237431 -1.73828125 34.92578125 C-2.26391159 34.40493454 -2.78954193 33.88408783 -3.33110046 33.34745789 C-4.43725819 32.24469729 -5.53714793 31.13561832 -6.63110352 30.02075195 C-8.30693053 28.31815843 -10.00774078 26.64387064 -11.71289062 24.97070312 C-12.78546097 23.89482865 -13.8564792 22.81740412 -14.92578125 21.73828125 C-15.43506668 21.23911697 -15.94435211 20.7399527 -16.46907043 20.22566223 C-18.66482693 17.95537968 -19.92296999 16.46163611 -20.44946289 13.30639648 C-19.75953941 9.76608844 -17.7055494 8.19165297 -15.125 5.75 C-14.22007813 4.87859375 -13.31515625 4.0071875 -12.3828125 3.109375 C-8.49833778 -0.32934032 -5.07052737 -0.68800836 0 0 Z " fill="#080203" transform="translate(111,125)"/>
<path d="M0 0 C2.0234375 0.1640625 2.0234375 0.1640625 4 1 C6.92129544 7.06730591 7.96593765 13.38200098 9 20 C10.11375 20.103125 11.2275 20.20625 12.375 20.3125 C17.99753829 21.01531729 24.89439406 21.89439406 29 26 C28.46428571 29.53571429 28.46428571 29.53571429 27 31 C21.43231263 30.86369127 16.19646291 30.05123536 11 28 C11.2165625 28.73605469 11.433125 29.47210938 11.65625 30.23046875 C11.9346875 31.20628906 12.213125 32.18210938 12.5 33.1875 C12.7784375 34.15042969 13.056875 35.11335938 13.34375 36.10546875 C13.97570837 38.89285655 14.27482513 41.15850451 14 44 C12 46 12 46 10.0625 46.0625 C7.4143144 44.69828318 6.70426427 43.04754548 5.66015625 40.3203125 C4.32724905 35.63541974 3.67230589 30.81687395 3 26 C1.97519531 25.81824219 0.95039062 25.63648438 -0.10546875 25.44921875 C-1.4662429 25.19583322 -2.82691473 24.9418978 -4.1875 24.6875 C-4.86103516 24.56955078 -5.53457031 24.45160156 -6.22851562 24.33007812 C-10.38162326 23.53997472 -13.52363313 22.40983102 -17 20 C-16.125 16.125 -16.125 16.125 -15 15 C-9.46185633 15.15449757 -4.25368138 16.32329318 1 18 C0.7834375 17.34773438 0.566875 16.69546875 0.34375 16.0234375 C-2.59850374 6.78802993 -2.59850374 6.78802993 -2 2 C-1.34 1.34 -0.68 0.68 0 0 Z " fill="#080203" transform="translate(84,143)"/>
<path d="M0 0 C0.71671875 0.26039062 1.4334375 0.52078125 2.171875 0.7890625 C2.88671875 2.5546875 2.88671875 2.5546875 3.171875 4.7890625 C1.73828125 6.7109375 1.73828125 6.7109375 -0.265625 8.5390625 C-1.25369141 9.45945312 -1.25369141 9.45945312 -2.26171875 10.3984375 C-2.77863281 10.85734375 -3.29554688 11.31625 -3.828125 11.7890625 C-2.178125 13.7690625 -0.528125 15.7490625 1.171875 17.7890625 C1.61917969 17.34433594 2.06648437 16.89960937 2.52734375 16.44140625 C4.34857643 14.73667033 6.09958006 13.18058286 8.171875 11.7890625 C11.109375 11.9140625 11.109375 11.9140625 13.171875 12.7890625 C14.046875 14.8515625 14.046875 14.8515625 14.171875 17.7890625 C12.43268367 20.37911975 10.36789566 22.58031129 8.171875 24.7890625 C10.151875 26.4390625 12.131875 28.0890625 14.171875 29.7890625 C14.63078125 29.27214844 15.0896875 28.75523438 15.5625 28.22265625 C16.17609375 27.56394531 16.7896875 26.90523437 17.421875 26.2265625 C18.02515625 25.56527344 18.6284375 24.90398437 19.25 24.22265625 C21.171875 22.7890625 21.171875 22.7890625 23.40625 23.07421875 C23.98890625 23.31011719 24.5715625 23.54601562 25.171875 23.7890625 C25.9921875 25.921875 25.9921875 25.921875 26.171875 28.7890625 C24.51824622 31.06053061 23.04736941 32.75449966 21.046875 34.6640625 C20.55960938 35.17453125 20.07234375 35.685 19.5703125 36.2109375 C18.1015625 37.65625 18.1015625 37.65625 15.171875 39.7890625 C10.2967741 39.69783374 7.65932053 36.88990404 4.3984375 33.6171875 C3.87043549 33.09775574 3.34243347 32.57832397 2.7984314 32.04315186 C1.68915723 30.94533258 0.585045 29.84227589 -0.51416016 28.734375 C-2.20133675 27.04085747 -3.91346766 25.37576304 -5.62890625 23.7109375 C-6.7047439 22.63964415 -7.77901884 21.56677867 -8.8515625 20.4921875 C-9.36600922 19.99616028 -9.88045593 19.50013306 -10.41049194 18.98907471 C-11.81787109 17.54394531 -11.81787109 17.54394531 -13.828125 14.7890625 C-13.72617719 9.99403003 -11.37456272 7.73975854 -8.078125 4.4140625 C-7.21703125 3.51945312 -6.3559375 2.62484375 -5.46875 1.703125 C-2.828125 -0.2109375 -2.828125 -0.2109375 0 0 Z " fill="#080203" transform="translate(157.828125,72.2109375)"/>
<path d="M0 0 C1.63671875 0.81640625 1.63671875 0.81640625 2.51171875 2.94140625 C2.63671875 5.81640625 2.63671875 5.81640625 1.3671875 7.484375 C-0.16341584 8.99347104 -1.72049632 10.43075287 -3.36328125 11.81640625 C-2.31453127 14.43828119 -1.71396812 15.61011986 0.76171875 17.06640625 C1.38046875 17.31390625 1.99921875 17.56140625 2.63671875 17.81640625 C3.71953125 16.57890625 3.71953125 16.57890625 4.82421875 15.31640625 C7.63671875 12.81640625 7.63671875 12.81640625 10.38671875 12.44140625 C12.63671875 12.81640625 12.63671875 12.81640625 13.63671875 13.81640625 C14.01171875 16.06640625 14.01171875 16.06640625 13.63671875 18.81640625 C11.13671875 21.62890625 11.13671875 21.62890625 8.63671875 23.81640625 C9.68546873 26.43828119 10.28603188 27.61011986 12.76171875 29.06640625 C13.38046875 29.31390625 13.99921875 29.56140625 14.63671875 29.81640625 C15.01183594 29.37167969 15.38695313 28.92695313 15.7734375 28.46875 C17.32349938 26.75470172 18.79628558 25.21720433 20.63671875 23.81640625 C23.51171875 23.94140625 23.51171875 23.94140625 25.63671875 24.81640625 C26.453125 26.453125 26.453125 26.453125 26.63671875 28.81640625 C25.01182875 31.01015905 23.50179367 32.74061948 21.57421875 34.62890625 C20.85588867 35.40137695 20.85588867 35.40137695 20.12304688 36.18945312 C18.6640625 37.6484375 18.6640625 37.6484375 15.63671875 39.81640625 C10.33599949 39.68490851 7.95634235 37.77659373 4.2734375 34.1171875 C3.79598587 33.6445195 3.31853424 33.1718515 2.82661438 32.68486023 C1.82478958 31.68642396 0.82919536 30.68170093 -0.16040039 29.67114258 C-1.67156815 28.13319402 -3.20756795 26.62375826 -4.74804688 25.11523438 C-5.72165918 24.13831778 -6.69371918 23.15985116 -7.6640625 22.1796875 C-8.54231689 21.29579346 -9.42057129 20.41189941 -10.32543945 19.5012207 C-12.63329216 16.46067246 -13.26905854 14.61455628 -13.36328125 10.81640625 C-11.67751028 8.46240174 -10.2528751 6.81042155 -8.17578125 4.87890625 C-7.68013672 4.37294922 -7.18449219 3.86699219 -6.67382812 3.34570312 C-2.97953287 -0.23146784 -2.97953287 -0.23146784 0 0 Z " fill="#070203" transform="translate(62.36328125,167.18359375)"/>
<path d="M0 0 C3.80285865 2.0090574 7.09334467 4.08076405 9 8 C9.60918039 12.50116622 9.51275524 15.95312471 7.5 20.0625 C6.7575 21.0215625 6.7575 21.0215625 6 22 C2.84795019 20.60652624 0.73828227 18.97514921 -1.671875 16.5234375 C-2.66767578 15.51796875 -2.66767578 15.51796875 -3.68359375 14.4921875 C-4.36550781 13.79351562 -5.04742187 13.09484375 -5.75 12.375 C-6.79607422 11.31539062 -6.79607422 11.31539062 -7.86328125 10.234375 C-9.58012488 8.49401297 -11.29211832 6.74915019 -13 5 C-12 2 -12 2 -10.4375 0.8125 C-6.92218714 -0.35927095 -3.63329594 -0.57404676 0 0 Z " fill="#E45165" transform="translate(184,63)"/>
<path d="M0 0 C4.39297547 0.25513318 6.96340683 3.49577215 9.89453125 6.42578125 C10.44614426 6.96978073 10.99775726 7.51378021 11.56608582 8.07426453 C12.72719468 9.22458473 13.8843688 10.37888837 15.0378418 11.53686523 C16.80981753 13.30981606 18.60205648 15.06035909 20.39648438 16.81054688 C21.52213143 17.93098905 22.64652499 19.05269226 23.76953125 20.17578125 C24.57871758 20.96037468 24.57871758 20.96037468 25.4042511 21.76081848 C26.88208008 23.2668457 26.88208008 23.2668457 29 26 C28.8269043 28.36401367 28.8269043 28.36401367 28 30 C25.87451172 30.82470703 25.87451172 30.82470703 23 31 C20.72371558 29.33767525 18.95582049 27.79783176 17.0078125 25.8046875 C16.45761444 25.2602298 15.90741638 24.71577209 15.34054565 24.15481567 C14.18187839 23.00022946 13.0307465 21.83803884 11.88671875 20.66894531 C10.13099722 18.88110692 8.34559526 17.12751007 6.5546875 15.375 C5.43296698 14.2493146 4.31310915 13.12176936 3.1953125 11.9921875 C2.658992 11.46801239 2.12267151 10.94383728 1.57009888 10.40377808 C0.10205078 8.87841797 0.10205078 8.87841797 -2 6 C-1.83285094 1.83285094 -1.83285094 1.83285094 0 0 Z " fill="#030101" transform="translate(115,112)"/>
<path d="M0 0 C3 0.25 3 0.25 5 2.25 C4.82194873 5.63297413 4.21162756 7.01272061 1.9375 9.5625 C1.298125 10.119375 0.65875 10.67625 0 11.25 C-2.88437779 9.95700306 -4.87219421 8.59058637 -7 6.25 C-4.24855491 0.35404624 -4.24855491 0.35404624 0 0 Z " fill="#E04F63" transform="translate(107,132.75)"/>
<path d="M0 0 C1 1 1 1 1.3125 3.8125 C1 7 1 7 -1 9.375 C-1.66 9.91125 -2.32 10.4475 -3 11 C-5.49361571 9.79618552 -7.68143083 8.54571278 -10 7 C-9.60856977 4.72970466 -9.11258722 3.16591802 -7.8125 1.25 C-5.18762903 -0.56025584 -3.107027 -0.27017626 0 0 Z " fill="#E35064" transform="translate(142,101)"/>
</svg>
