<?xml version="1.0" encoding="UTF-8"?>
<svg version="1.1" xmlns="http://www.w3.org/2000/svg" width="512" height="512">
<path d="M0 0 C0.67637512 0.00465271 1.35275024 0.00930542 2.04962158 0.01409912 C12.17038282 0.09556655 21.78504158 0.52279114 31.5625 3.375 C32.22781738 3.56835938 32.89313477 3.76171875 33.57861328 3.9609375 C50.38109962 8.99352874 65.15583035 17.1295148 78.5625 28.375 C79.38234375 29.04273437 80.2021875 29.71046875 81.046875 30.3984375 C93.65061264 41.04642275 102.79690557 55.16597007 109.875 69.9375 C110.18832275 70.58477051 110.50164551 71.23204102 110.82446289 71.89892578 C112.81842911 76.21927472 114.2955038 80.60215933 115.67651367 85.15600586 C116.03130295 86.32199814 116.38609222 87.48799042 116.75163269 88.6893158 C117.0192189 89.57559158 117.28680511 90.46186737 117.5625 91.375 C117.9397673 90.60936234 118.31703461 89.84372467 118.70573425 89.05488586 C122.27010506 81.8257871 125.844183 74.6015891 129.42913342 67.38267231 C131.27167059 63.67155091 133.11045598 59.95866948 134.94067383 56.24145508 C136.70843972 52.65143207 138.48605012 49.06644246 140.27047157 45.48467064 C140.94813183 44.12014118 141.62228029 42.75386162 142.29277611 41.3857975 C143.2355512 39.4637329 144.19084208 37.54838032 145.14916992 35.6340332 C145.68877853 34.54371292 146.22838715 33.45339264 146.78434753 32.33003235 C149.62917665 27.6023376 153.42241851 23.49807714 158.5625 21.375 C164.77283899 20.68073546 170.32283032 20.6323788 175.5625 24.375 C179.81443712 28.96414663 182.53757183 33.76341627 185.29510498 39.35246277 C185.74377875 40.24568703 186.19245251 41.1389113 186.65472245 42.05920297 C188.15081052 45.04247466 189.63542209 48.03130772 191.12011719 51.02026367 C192.1924288 53.16437796 193.2654395 55.30814274 194.33909607 57.45158386 C196.9469905 62.66251814 199.54748652 67.87709441 202.14463678 73.0933909 C205.16963587 79.16811871 208.20337228 85.2384682 211.23754767 91.30861644 C216.64965586 102.13670558 222.05432576 112.9684899 227.45458984 123.80249023 C232.69557827 134.31692543 237.94105382 144.82910441 243.19189453 155.33862305 C243.67744978 156.31046178 243.67744978 156.31046178 244.17281422 157.30193361 C245.47394741 159.90612868 246.77508722 162.51032043 248.07624178 165.11450483 C253.08074138 175.13103288 258.08200121 185.14917874 263.08257471 195.1676673 C264.59336759 198.19448983 266.10428192 201.22125159 267.61549282 204.24786544 C271.06040851 211.14736619 274.50336102 218.04784023 277.94310188 224.94992256 C278.98693542 227.0437225 280.03144481 229.13718565 281.07666588 231.23029327 C282.49891828 234.07876676 283.91870881 236.9284535 285.33782959 239.77848816 C285.96451448 241.03158139 285.96451448 241.03158139 286.60385966 242.30998963 C286.98245733 243.07164282 287.36105501 243.83329601 287.75112534 244.61802959 C288.07915138 245.27587025 288.40717742 245.93371091 288.74514365 246.61148614 C291.43369904 252.41226655 291.47803889 258.67924659 289.4375 264.6875 C287.16190196 267.94919052 284.65039072 269.87707214 281.5625 272.375 C282.16083145 272.37864563 282.7591629 272.38229126 283.37562561 272.38604736 C289.62181987 272.4279654 295.86728569 272.49737613 302.11303711 272.58251953 C304.44173892 272.61068735 306.7705356 272.63192264 309.09936523 272.64599609 C312.45345479 272.66748289 315.80640877 272.71416509 319.16015625 272.765625 C320.71368553 272.76746796 320.71368553 272.76746796 322.29859924 272.76934814 C328.56650671 272.89540223 332.57922273 273.43836717 337.5625 277.375 C341.39410765 282.85303468 342.14228036 286.81199092 342.07043457 293.40783691 C342.07667453 294.29500979 342.0829145 295.18218266 342.08934355 296.09623957 C342.10524799 299.05727178 342.0926792 302.01747788 342.08007812 304.97851562 C342.08550036 307.10609923 342.0926236 309.23367908 342.10131836 311.36125183 C342.11954234 317.13187822 342.11248784 322.90221831 342.09980202 328.67284966 C342.08966966 334.71407717 342.09906836 340.7552803 342.10534668 346.79650879 C342.11262237 356.9413696 342.10303735 367.08611391 342.08398438 377.23095703 C342.06221588 388.95705137 342.0692673 400.6828675 342.09129 412.4089551 C342.10944614 422.47963481 342.11200124 432.55023082 342.10153532 442.62092161 C342.09530161 448.63443785 342.09446152 454.64782335 342.10768127 460.66133118 C342.11924214 466.31508205 342.11120931 471.96847448 342.08810425 477.62218666 C342.08281848 479.69622007 342.08432864 481.77028368 342.09315491 483.84430504 C342.10409899 486.67733061 342.09036025 489.50921036 342.07043457 492.34216309 C342.07935746 493.16133414 342.08828034 493.98050519 342.09747362 494.82449961 C342.02054186 500.47042571 340.99716893 503.827171 337.5625 508.375 C332.24055691 512.07306993 328.46599275 512.95660676 322.06820679 512.87836456 C320.81828253 512.88708521 320.81828253 512.88708521 319.54310727 512.89598203 C316.75028557 512.91058242 313.95834267 512.89669663 311.16552734 512.88293457 C309.14331806 512.88754346 307.12111212 512.8938963 305.09891319 512.90184355 C299.54138072 512.9185615 293.98412255 512.91027917 288.42658901 512.89789867 C282.43331977 512.88886066 276.4400982 512.90281172 270.44683838 512.91381836 C259.38452927 512.93059228 248.32229574 512.92911727 237.2599861 512.91817249 C227.04056322 512.90811124 216.82117243 512.905483 206.60174561 512.91026306 C205.5850263 512.91072137 205.5850263 512.91072137 204.54776721 512.91118894 C201.7963209 512.91243429 199.0448746 512.91370789 196.29342832 512.915028 C170.48143701 512.92726469 144.66950147 512.91616907 118.85751876 512.89464041 C95.92386284 512.8756579 72.99029577 512.87735641 50.05664062 512.89648438 C24.29193827 512.91790176 -1.47271482 512.92639688 -27.23742485 512.91403532 C-29.98386509 512.91275245 -32.73030534 512.91150109 -35.47674561 512.91026306 C-36.15299188 512.90994675 -36.82923815 512.90963044 -37.52597673 512.90930455 C-47.73911275 512.90475418 -57.95221315 512.91007664 -68.16534424 512.92018127 C-79.77785427 512.93161312 -91.39027975 512.92838469 -103.00278044 512.9070583 C-108.92968673 512.89653291 -114.85641254 512.89245156 -120.78331757 512.90565491 C-126.20650389 512.91755356 -131.62934204 512.91105772 -137.05249667 512.8897447 C-139.01672926 512.88526795 -140.98099113 512.88756886 -142.94520497 512.89724785 C-145.61162598 512.90938153 -148.27684867 512.89696758 -150.94320679 512.87836456 C-151.70894603 512.88772923 -152.47468526 512.89709389 -153.26362872 512.90674233 C-158.73248439 512.83028748 -161.91415132 511.47330132 -166.4375 508.375 C-170.75750036 503.5435197 -171.0121103 499.59650063 -170.94543457 493.42445374 C-170.95167453 492.53405173 -170.9579145 491.64364973 -170.96434355 490.72626585 C-170.98027419 487.74831065 -170.96766885 484.77117389 -170.95507812 481.79321289 C-170.96049924 479.65592471 -170.96762184 477.51864027 -170.97631836 475.38136292 C-170.99455685 469.57968718 -170.98748156 463.77829591 -170.97480202 457.97661519 C-170.96467586 451.90468532 -170.97406676 445.83277983 -170.98034668 439.760849 C-170.98762474 429.56293363 -170.97803173 419.36513411 -170.95898438 409.16723633 C-170.93722126 397.37924727 -170.94426244 385.59153502 -170.96629 373.80355269 C-170.98444637 363.68193826 -170.98700095 353.56040713 -170.97653532 343.43878168 C-170.97030099 337.39395165 -170.96946312 331.34925167 -170.98268127 325.30443001 C-170.99424227 319.62032439 -170.98620906 313.9365753 -170.96310425 308.25250816 C-170.9578183 306.16718767 -170.95932896 304.08183714 -170.96815491 301.99652863 C-170.9790984 299.14812497 -170.96536085 296.3008611 -170.94543457 293.45252991 C-170.95435746 292.62878579 -170.96328034 291.80504167 -170.97247362 290.9563356 C-170.89577895 285.29766303 -169.88211574 281.93199999 -166.4375 277.375 C-161.65684378 273.27452564 -156.87368054 272.79543133 -150.77516174 272.85601807 C-149.5043726 272.84476619 -149.5043726 272.84476619 -148.20791095 272.833287 C-145.38257719 272.81306385 -142.55805005 272.8211019 -139.73266602 272.82910156 C-137.70209461 272.82036364 -135.67153009 272.80987709 -133.64097595 272.79777527 C-128.13737893 272.76992174 -122.63400667 272.76651045 -117.1303494 272.76749516 C-111.37541756 272.76436553 -105.62058687 272.73874622 -99.8657074 272.71551514 C-88.97199032 272.67495557 -78.07833309 272.65461448 -67.18455213 272.64154124 C-54.78070266 272.6256711 -42.37695506 272.58725535 -29.97316468 272.54694796 C-4.46131064 272.46454954 21.05054059 272.41045702 46.5625 272.375 C45.77359375 271.75882812 44.9846875 271.14265625 44.171875 270.5078125 C39.97229121 267.07521857 38.46188083 263.98222127 37.625 258.6875 C37.20731809 252.7964447 38.98201811 248.58163603 41.5625 243.375 C42.09230469 242.28703125 42.62210938 241.1990625 43.16796875 240.078125 C44.60811187 237.16363108 46.07304974 234.2645335 47.5625 231.375 C47.02625 231.54515625 46.49 231.7153125 45.9375 231.890625 C40.43481052 233.59211451 34.89710905 235.09611996 29.3125 236.5 C28.30316406 236.75571777 28.30316406 236.75571777 27.2734375 237.01660156 C-3.05680503 244.5542063 -36.01343853 238.67476664 -62.625 222.78125 C-90.76711456 205.34106633 -109.14286026 178.49465962 -117.40625 146.640625 C-124.44218273 115.5685092 -118.56332758 82.41743158 -101.85791016 55.47021484 C-87.02673032 32.51945336 -65.34280984 14.87587638 -39.4375 6.0625 C-38.42574707 5.71687012 -38.42574707 5.71687012 -37.39355469 5.36425781 C-25.01052264 1.40703359 -12.96051468 -0.14085756 0 0 Z " fill="#D83232" transform="translate(170.4375,-0.375)"/>
<path d="M0 0 C0.67637512 0.00465271 1.35275024 0.00930542 2.04962158 0.01409912 C12.17038282 0.09556655 21.78504158 0.52279114 31.5625 3.375 C32.22781738 3.56835938 32.89313477 3.76171875 33.57861328 3.9609375 C50.38109962 8.99352874 65.15583035 17.1295148 78.5625 28.375 C79.38234375 29.04273437 80.2021875 29.71046875 81.046875 30.3984375 C93.65061264 41.04642275 102.79690557 55.16597007 109.875 69.9375 C110.18832275 70.58477051 110.50164551 71.23204102 110.82446289 71.89892578 C112.81842911 76.21927472 114.2955038 80.60215933 115.67651367 85.15600586 C116.03130295 86.32199814 116.38609222 87.48799042 116.75163269 88.6893158 C117.0192189 89.57559158 117.28680511 90.46186737 117.5625 91.375 C117.9397673 90.60936234 118.31703461 89.84372467 118.70573425 89.05488586 C122.27010506 81.8257871 125.844183 74.6015891 129.42913342 67.38267231 C131.27167059 63.67155091 133.11045598 59.95866948 134.94067383 56.24145508 C136.70843972 52.65143207 138.48605012 49.06644246 140.27047157 45.48467064 C140.94813183 44.12014118 141.62228029 42.75386162 142.29277611 41.3857975 C143.2355512 39.4637329 144.19084208 37.54838032 145.14916992 35.6340332 C145.68877853 34.54371292 146.22838715 33.45339264 146.78434753 32.33003235 C149.62917665 27.6023376 153.42241851 23.49807714 158.5625 21.375 C164.77283899 20.68073546 170.32283032 20.6323788 175.5625 24.375 C179.81443712 28.96414663 182.53757183 33.76341627 185.29510498 39.35246277 C185.74377875 40.24568703 186.19245251 41.1389113 186.65472245 42.05920297 C188.15081052 45.04247466 189.63542209 48.03130772 191.12011719 51.02026367 C192.1924288 53.16437796 193.2654395 55.30814274 194.33909607 57.45158386 C196.9469905 62.66251814 199.54748652 67.87709441 202.14463678 73.0933909 C205.16963587 79.16811871 208.20337228 85.2384682 211.23754767 91.30861644 C216.64965586 102.13670558 222.05432576 112.9684899 227.45458984 123.80249023 C232.69557827 134.31692543 237.94105382 144.82910441 243.19189453 155.33862305 C243.67744978 156.31046178 243.67744978 156.31046178 244.17281422 157.30193361 C245.47394741 159.90612868 246.77508722 162.51032043 248.07624178 165.11450483 C253.08074138 175.13103288 258.08200121 185.14917874 263.08257471 195.1676673 C264.59336759 198.19448983 266.10428192 201.22125159 267.61549282 204.24786544 C271.06040851 211.14736619 274.50336102 218.04784023 277.94310188 224.94992256 C278.98693542 227.0437225 280.03144481 229.13718565 281.07666588 231.23029327 C282.49891828 234.07876676 283.91870881 236.9284535 285.33782959 239.77848816 C285.96451448 241.03158139 285.96451448 241.03158139 286.60385966 242.30998963 C286.98245733 243.07164282 287.36105501 243.83329601 287.75112534 244.61802959 C288.07915138 245.27587025 288.40717742 245.93371091 288.74514365 246.61148614 C291.43369904 252.41226655 291.47803889 258.67924659 289.4375 264.6875 C287.16190196 267.94919052 284.65039072 269.87707214 281.5625 272.375 C282.16083145 272.37864563 282.7591629 272.38229126 283.37562561 272.38604736 C289.62181987 272.4279654 295.86728569 272.49737613 302.11303711 272.58251953 C304.44173892 272.61068735 306.7705356 272.63192264 309.09936523 272.64599609 C312.45345479 272.66748289 315.80640877 272.71416509 319.16015625 272.765625 C320.71368553 272.76746796 320.71368553 272.76746796 322.29859924 272.76934814 C328.56650671 272.89540223 332.57922273 273.43836717 337.5625 277.375 C341.5625 284.375 341.5625 284.375 341.5625 307.375 C172.6025 307.375 3.6425 307.375 -170.4375 307.375 C-170.4375 284.375 -170.4375 284.375 -166.4375 277.375 C-161.20474178 273.45269702 -157.19599421 272.79222925 -150.77516174 272.85601807 C-149.5043726 272.84476619 -149.5043726 272.84476619 -148.20791095 272.833287 C-145.38257719 272.81306385 -142.55805005 272.8211019 -139.73266602 272.82910156 C-137.70209461 272.82036364 -135.67153009 272.80987709 -133.64097595 272.79777527 C-128.13737893 272.76992174 -122.63400667 272.76651045 -117.1303494 272.76749516 C-111.37541756 272.76436553 -105.62058687 272.73874622 -99.8657074 272.71551514 C-88.97199032 272.67495557 -78.07833309 272.65461448 -67.18455213 272.64154124 C-54.78070266 272.6256711 -42.37695506 272.58725535 -29.97316468 272.54694796 C-4.46131064 272.46454954 21.05054059 272.41045702 46.5625 272.375 C45.77359375 271.75882812 44.9846875 271.14265625 44.171875 270.5078125 C39.97229121 267.07521857 38.46188083 263.98222127 37.625 258.6875 C37.20731809 252.7964447 38.98201811 248.58163603 41.5625 243.375 C42.09230469 242.28703125 42.62210938 241.1990625 43.16796875 240.078125 C44.60811187 237.16363108 46.07304974 234.2645335 47.5625 231.375 C47.02625 231.54515625 46.49 231.7153125 45.9375 231.890625 C40.43481052 233.59211451 34.89710905 235.09611996 29.3125 236.5 C28.30316406 236.75571777 28.30316406 236.75571777 27.2734375 237.01660156 C-3.05680503 244.5542063 -36.01343853 238.67476664 -62.625 222.78125 C-90.76711456 205.34106633 -109.14286026 178.49465962 -117.40625 146.640625 C-124.44218273 115.5685092 -118.56332758 82.41743158 -101.85791016 55.47021484 C-87.02673032 32.51945336 -65.34280984 14.87587638 -39.4375 6.0625 C-38.42574707 5.71687012 -38.42574707 5.71687012 -37.39355469 5.36425781 C-25.01052264 1.40703359 -12.96051468 -0.14085756 0 0 Z " fill="#FDDE30" transform="translate(170.4375,-0.375)"/>
<path d="M0 0 C0.67637512 0.00465271 1.35275024 0.00930542 2.04962158 0.01409912 C12.17038282 0.09556655 21.78504158 0.52279114 31.5625 3.375 C32.22781738 3.56835938 32.89313477 3.76171875 33.57861328 3.9609375 C50.38109962 8.99352874 65.15583035 17.1295148 78.5625 28.375 C79.38234375 29.04273437 80.2021875 29.71046875 81.046875 30.3984375 C98.42801506 45.0825041 113.74215633 69.63342664 117.5625 92.375 C117.04667597 96.28708149 115.75109761 99.37456926 113.99478149 102.89138794 C113.4508223 103.98776581 112.9068631 105.08414368 112.34642029 106.21374512 C111.74099581 107.41876175 111.13544659 108.62371572 110.52978516 109.82861328 C109.89362164 111.10500723 109.25796867 112.38165574 108.62278748 113.65853882 C106.89897163 117.11983419 105.16759794 120.57729688 103.43450975 124.033957 C101.6212323 127.65291183 99.81381669 131.274793 98.00546265 134.89620972 C94.96824347 140.97610401 91.92597608 147.05345232 88.88085938 153.12939453 C85.36031744 160.15414642 81.84844868 167.18318269 78.34104502 174.21450245 C75.32886101 180.25248282 72.31200778 186.28811285 69.29123724 192.32180202 C67.4872892 195.92502098 65.68497263 199.52903113 63.88685989 203.13516617 C62.19652771 206.52449437 60.50035462 209.91083476 58.79962349 213.29495621 C58.17634397 214.53754759 57.55510588 215.78116535 56.93605995 217.02587128 C56.09098553 218.72421373 55.23779067 220.41850834 54.38418579 222.11257935 C53.90891764 223.06198458 53.43364948 224.01138981 52.94397926 224.9895649 C48.44990458 232.74959706 38.64299339 233.97352684 30.5625 236.375 C28.84546875 236.89707031 28.84546875 236.89707031 27.09375 237.4296875 C-3.0101964 244.9556741 -36.30066351 238.50322409 -62.625 222.78125 C-90.76711456 205.34106633 -109.14286026 178.49465962 -117.40625 146.640625 C-124.44218273 115.5685092 -118.56332758 82.41743158 -101.85791016 55.47021484 C-87.02673032 32.51945336 -65.34280984 14.87587638 -39.4375 6.0625 C-38.42574707 5.71687012 -38.42574707 5.71687012 -37.39355469 5.36425781 C-25.01052264 1.40703359 -12.96051468 -0.14085756 0 0 Z " fill="#F7F5F5" transform="translate(170.4375,-0.375)"/>
<path d="M0 0 C0.67637512 0.00465271 1.35275024 0.00930542 2.04962158 0.01409912 C12.17038282 0.09556655 21.78504158 0.52279114 31.5625 3.375 C32.22781738 3.56835938 32.89313477 3.76171875 33.57861328 3.9609375 C50.38109962 8.99352874 65.15583035 17.1295148 78.5625 28.375 C79.38234375 29.04273437 80.2021875 29.71046875 81.046875 30.3984375 C98.42801506 45.0825041 113.74215633 69.63342664 117.5625 92.375 C117.04667597 96.28708149 115.75109761 99.37456926 113.99478149 102.89138794 C113.4508223 103.98776581 112.9068631 105.08414368 112.34642029 106.21374512 C111.74099581 107.41876175 111.13544659 108.62371572 110.52978516 109.82861328 C109.89362164 111.10500723 109.25796867 112.38165574 108.62278748 113.65853882 C106.89897163 117.11983419 105.16759794 120.57729688 103.43450975 124.033957 C101.6212323 127.65291183 99.81381669 131.274793 98.00546265 134.89620972 C94.96824347 140.97610401 91.92597608 147.05345232 88.88085938 153.12939453 C85.36031744 160.15414642 81.84844868 167.18318269 78.34104502 174.21450245 C75.32886101 180.25248282 72.31200778 186.28811285 69.29123724 192.32180202 C67.4872892 195.92502098 65.68497263 199.52903113 63.88685989 203.13516617 C62.19652771 206.52449437 60.50035462 209.91083476 58.79962349 213.29495621 C58.17634397 214.53754759 57.55510588 215.78116535 56.93605995 217.02587128 C56.09098553 218.72421373 55.23779067 220.41850834 54.38418579 222.11257935 C53.90891764 223.06198458 53.43364948 224.01138981 52.94397926 224.9895649 C48.44990458 232.74959706 38.64299339 233.97352684 30.5625 236.375 C28.84546875 236.89707031 28.84546875 236.89707031 27.09375 237.4296875 C-3.0101964 244.9556741 -36.30066351 238.50322409 -62.625 222.78125 C-90.76711456 205.34106633 -109.14286026 178.49465962 -117.40625 146.640625 C-124.44218273 115.5685092 -118.56332758 82.41743158 -101.85791016 55.47021484 C-87.02673032 32.51945336 -65.34280984 14.87587638 -39.4375 6.0625 C-38.42574707 5.71687012 -38.42574707 5.71687012 -37.39355469 5.36425781 C-25.01052264 1.40703359 -12.96051468 -0.14085756 0 0 Z M-57.4375 56.375 C-58.18386719 57.02082031 -58.93023437 57.66664062 -59.69921875 58.33203125 C-74.86079844 72.48085316 -84.75110641 93.91993143 -85.6640625 114.5859375 C-86.36072624 140.50461531 -76.82009535 163.30447675 -59.0625 182.0625 C-42.01207436 198.38818719 -19.04851777 205.99104485 4.1796875 205.65234375 C23.05972987 204.97249987 39.66908887 197.6429058 54.5625 186.375 C55.21605469 185.90707031 55.86960938 185.43914062 56.54296875 184.95703125 C71.75607576 173.21294627 81.81913667 152.67523439 85.14453125 134.12890625 C88.08184027 107.74802806 82.07220563 84.81258554 65.62890625 63.91796875 C53.71021541 49.84096367 38.1208149 41.2152944 20.5625 36.375 C19.675625 36.12878906 18.78875 35.88257813 17.875 35.62890625 C-9.41684519 29.44559757 -36.75316214 38.41000167 -57.4375 56.375 Z " fill="#8AC9FD" transform="translate(170.4375,-0.375)"/>
<path d="M0 0 C168.96 0 337.92 0 512 0 C512 23 512 23 508 30 C502.80791484 33.88069249 498.87135152 34.58121369 492.50570679 34.50336456 C491.25578253 34.51208521 491.25578253 34.51208521 489.98060727 34.52098203 C487.18778557 34.53558242 484.39584267 34.52169663 481.60302734 34.50793457 C479.58081806 34.51254346 477.55861212 34.5188963 475.53641319 34.52684355 C469.97888072 34.5435615 464.42162255 34.53527917 458.86408901 34.52289867 C452.87081977 34.51386066 446.8775982 34.52781172 440.88433838 34.53881836 C429.82202927 34.55559228 418.75979574 34.55411727 407.6974861 34.54317249 C397.47806322 34.53311124 387.25867243 34.530483 377.03924561 34.53526306 C376.0225263 34.53572137 376.0225263 34.53572137 374.98526721 34.53618894 C372.2338209 34.53743429 369.4823746 34.53870789 366.73092832 34.540028 C340.91893701 34.55226469 315.10700147 34.54116907 289.29501876 34.51964041 C266.36136284 34.5006579 243.42779577 34.50235641 220.49414062 34.52148438 C194.72943827 34.54290176 168.96478518 34.55139688 143.20007515 34.53903532 C140.45363491 34.53775245 137.70719466 34.53650109 134.96075439 34.53526306 C134.28450812 34.53494675 133.60826185 34.53463044 132.91152327 34.53430455 C122.69838725 34.52975418 112.48528685 34.53507664 102.27215576 34.54518127 C90.65964573 34.55661312 79.04722025 34.55338469 67.43471956 34.5320583 C61.50781327 34.52153291 55.58108746 34.51745156 49.65418243 34.53065491 C44.23099611 34.54255356 38.80815796 34.53605772 33.38500333 34.5147447 C31.42077074 34.51026795 29.45650887 34.51256886 27.49229503 34.52224785 C24.82587402 34.53438153 22.16065133 34.52196758 19.49429321 34.50336456 C18.72855397 34.51272923 17.96281474 34.52209389 17.17387128 34.53174233 C11.68777162 34.45504641 8.4651905 33.25070037 4 30 C0 24 0 24 0 0 Z " fill="#F7F5F5" transform="translate(0,478)"/>
<path d="M0 0 C0.83328284 -0.00581376 1.66656568 -0.01162753 2.52509952 -0.01761746 C5.31792121 -0.03221786 8.10986412 -0.01833207 10.90267944 -0.00457001 C12.92488873 -0.0091789 14.94709467 -0.01553173 16.96929359 -0.02347898 C22.52682607 -0.04019694 28.08408424 -0.03191461 33.64161777 -0.01953411 C39.63488702 -0.0104961 45.62810859 -0.02444716 51.62136841 -0.0354538 C62.68367752 -0.05222772 73.74591105 -0.05075271 84.80822068 -0.03980792 C95.02764357 -0.02974668 105.24703436 -0.02711843 115.46646118 -0.0318985 C116.14427405 -0.03220404 116.82208692 -0.03250958 117.52043958 -0.03282438 C120.27188589 -0.03406973 123.02333219 -0.03534333 125.77477846 -0.03666343 C151.58676977 -0.04890012 177.39870532 -0.0378045 203.21068802 -0.01627585 C226.14434394 0.00270666 249.07791102 0.00100816 272.01156616 -0.01811981 C297.77626852 -0.03953719 323.54092161 -0.04803231 349.30563164 -0.03567076 C352.05207188 -0.03438788 354.79851213 -0.03313652 357.54495239 -0.0318985 C358.22119866 -0.03158219 358.89744494 -0.03126588 359.59418352 -0.03093999 C369.80731953 -0.02638961 380.02041994 -0.03171208 390.23355103 -0.04181671 C401.84606106 -0.05324855 413.45848654 -0.05002013 425.07098722 -0.02869374 C430.99789351 -0.01816835 436.92461933 -0.014087 442.85152435 -0.02729034 C448.27471068 -0.039189 453.69754882 -0.03269316 459.12070346 -0.01138014 C461.08493605 -0.00690338 463.04919791 -0.0092043 465.01341176 -0.01888329 C467.67983276 -0.03101697 470.34505545 -0.01860302 473.01141357 0 C474.16002243 -0.014047 474.16002243 -0.014047 475.33183551 -0.02837777 C480.8192712 0.04833684 484.07347048 1.19060184 488.50570679 4.50336456 C492.50570679 11.50336456 492.50570679 11.50336456 492.50570679 34.50336456 C323.54570679 34.50336456 154.58570679 34.50336456 -19.49429321 34.50336456 C-19.49429321 11.50336456 -19.49429321 11.50336456 -15.49429321 4.50336456 C-10.30220805 0.62267207 -6.36564473 -0.07784912 0 0 Z " fill="#F7F5F5" transform="translate(19.494293212890625,272.4966354370117)"/>
<path d="M0 0 C6.07922345 4.34230246 9.12832838 10.30727325 12.35760498 16.85246277 C12.80627875 17.74568703 13.25495251 18.6389113 13.71722245 19.55920297 C15.21331052 22.54247466 16.69792209 25.53130772 18.18261719 28.52026367 C19.2549288 30.66437796 20.3279395 32.80814274 21.40159607 34.95158386 C24.0094905 40.16251814 26.60998652 45.37709441 29.20713678 50.5933909 C32.23213587 56.66811871 35.26587228 62.7384682 38.30004767 68.80861644 C43.71215586 79.63670558 49.11682576 90.4684899 54.51708984 101.30249023 C59.75807827 111.81692543 65.00355382 122.32910441 70.25439453 132.83862305 C70.57809803 133.48651553 70.90180153 134.13440802 71.23531422 134.80193361 C72.53644741 137.40612868 73.83758722 140.01032043 75.13874178 142.61450483 C80.14324138 152.63103288 85.14450121 162.64917874 90.14507471 172.6676673 C91.65586759 175.69448983 93.16678192 178.72125159 94.67799282 181.74786544 C98.12290851 188.64736619 101.56586102 195.54784023 105.00560188 202.44992256 C106.04943542 204.5437225 107.09394481 206.63718565 108.13916588 208.73029327 C109.56141828 211.57876676 110.98120881 214.4284535 112.40032959 217.27848816 C112.81811951 218.11388364 113.23590944 218.94927913 113.66635966 219.80998963 C114.04495733 220.57164282 114.42355501 221.33329601 114.81362534 222.11802959 C115.14165138 222.77587025 115.46967742 223.43371091 115.80764365 224.11148614 C118.49619904 229.91226655 118.54053889 236.17924659 116.5 242.1875 C113.86486769 245.96452297 110.7925053 248.79124735 106.625 250.875 C104.7386088 250.959915 102.84921485 250.982193 100.9609375 250.97265625 C99.83945312 250.96943359 98.71796875 250.96621094 97.5625 250.96289062 C96.386875 250.95451172 95.21125 250.94613281 94 250.9375 C92.81664062 250.93298828 91.63328125 250.92847656 90.4140625 250.92382812 C87.48432493 250.91201467 84.55468728 250.89554258 81.625 250.875 C82.79482422 249.946875 82.79482422 249.946875 83.98828125 249 C88.34992147 245.48484107 92.08612884 242.39507037 92.96798742 236.63450181 C93.09284966 229.88127582 91.50251732 225.21923812 88.42446899 219.27139282 C87.97260581 218.35912221 87.52074263 217.4468516 87.05518663 216.50693643 C85.54470664 213.46957865 84.00619123 210.4473583 82.46728516 207.42431641 C81.37522921 205.24302684 80.28493664 203.06085368 79.1962738 200.87786865 C76.85249308 196.18803396 74.49659668 191.50450757 72.12938309 186.82646561 C68.70468207 180.05858031 65.30231205 173.27966373 61.90516691 166.49791317 C56.38925709 155.48795036 50.85556542 144.48702703 45.31054688 133.49169922 C39.93106193 122.82451563 34.55998987 112.15316593 29.20019531 101.47607422 C28.86976961 100.81785005 28.53934391 100.15962588 28.1989053 99.48145552 C26.54091714 96.17853206 24.88309503 92.8755253 23.22535634 89.57247663 C10.43532754 64.08878909 -2.37800647 38.61690524 -15.21162164 13.15513575 C-15.60226065 12.38002473 -15.99289965 11.6049137 -16.39537621 10.80631447 C-16.73180842 10.13887077 -17.06824063 9.47142707 -17.41486776 8.78375781 C-18.40479357 6.81576992 -19.39060171 4.84575781 -20.375 2.875 C-14.29562386 -2.38283883 -7.51150568 -2.50383523 0 0 Z " fill="#FDC526" transform="translate(343.375,22.125)"/>
<path d="M0 0 C1.29550781 -0.00193359 2.59101563 -0.00386719 3.92578125 -0.00585938 C4.5997998 0.00662842 5.27381836 0.01911621 5.96826172 0.03198242 C7.99721354 0.065967 10.02172092 0.05272758 12.05078125 0.03320312 C23.02311997 0.1146003 31.48883461 1.96789441 39.58203125 9.65234375 C49.09765353 20.00697789 51.07890173 30.6243735 50.6875 44.2734375 C50.10094747 55.70135386 45.81665463 66.71269289 37.3984375 74.62890625 C28.84667765 81.0940367 20.89855268 82.0256034 10.34814453 82.05444336 C8.27128725 82.06641865 6.19733236 82.11574053 4.12109375 82.16601562 C2.80753906 82.17310547 1.49398438 82.18019531 0.140625 82.1875 C-1.65592529 82.20768188 -1.65592529 82.20768188 -3.48876953 82.22827148 C-6.6015625 81.62890625 -6.6015625 81.62890625 -8.76376343 79.52931213 C-11.02770238 75.9563743 -11.10829219 73.83347391 -11.11914062 69.62304688 C-11.1261499 68.9378447 -11.13315918 68.25264252 -11.14038086 67.54667664 C-11.15791796 65.29241844 -11.14635482 63.03942615 -11.1328125 60.78515625 C-11.13550868 59.21244059 -11.13939216 57.63972657 -11.14440918 56.0670166 C-11.15029837 52.77514738 -11.14176044 49.48371309 -11.12304688 46.19189453 C-11.1002571 41.97832875 -11.11338337 37.76578214 -11.13733673 33.55225372 C-11.15181072 30.30593221 -11.14718151 27.0598512 -11.13682556 23.81352234 C-11.13416267 22.26022724 -11.13741265 20.7069101 -11.14674377 19.15364075 C-11.1569365 16.98009651 -11.14137366 14.80818839 -11.11914062 12.63476562 C-11.11595825 11.39964233 -11.11277588 10.16451904 -11.10949707 8.89196777 C-10.03247706 1.9730007 -6.65052901 -0.00411373 0 0 Z " fill="#F7F2F2" transform="translate(426.6015625,351.37109375)"/>
<path d="M0 0 C7.92 0 15.84 0 24 0 C24 56.43 24 112.86 24 171 C16.08 171 8.16 171 0 171 C0 114.57 0 58.14 0 0 Z " fill="#C41926" transform="translate(488,307)"/>
<path d="M0 0 C27.61456971 -0.7569476 50.89761968 5.45309208 71.57373047 24.62109375 C87.08364449 39.61595756 95.77121695 61.21385967 96.28320312 82.54467773 C96.53412256 106.25029107 88.86921162 128.02390868 72.46142578 145.52978516 C59.58075683 158.48791888 43.76020058 166.28421335 26 170 C25.0821875 170.1959375 24.164375 170.391875 23.21875 170.59375 C18.68037009 171.16655523 14.19379845 171.10486404 9.625 171.0625 C8.69816406 171.05798828 7.77132812 171.05347656 6.81640625 171.04882812 C4.54420291 171.03711574 2.27213612 171.02071372 0 171 C3.31970479 168.78686347 6.53204179 167.89065709 10.3125 166.8125 C22.73305054 163.07165934 33.15713054 157.54148449 43 149 C44.010625 148.2575 45.02125 147.515 46.0625 146.75 C59.4349698 135.37398344 68.86895828 115.1287504 71 98 C71.16534188 94.26996147 71.18508675 90.54579285 71.1875 86.8125 C71.19974609 85.83474609 71.21199219 84.85699219 71.22460938 83.84960938 C71.26943895 61.24055893 62.14707429 40.66423776 46.546875 24.5234375 C33.62919261 11.80147757 17.22139155 5.43322951 0 1 C0 0.67 0 0.34 0 0 Z " fill="#E1E2E2" transform="translate(160,34)"/>
<path d="M0 0 C1.15693359 -0.00193359 2.31386719 -0.00386719 3.50585938 -0.00585938 C5.30700195 0.02991211 5.30700195 0.02991211 7.14453125 0.06640625 C8.91666992 0.0499707 8.91666992 0.0499707 10.72460938 0.03320312 C20.07229136 0.11088469 27.87159334 1.52758971 34.89453125 8.00390625 C39.767836 13.05681683 41.38735371 18.04168881 41.39453125 25.00390625 C41.22221492 32.99311806 39.72746878 37.42103121 34.58203125 43.37890625 C27.29036458 49.62890625 27.29036458 49.62890625 21.95703125 49.62890625 C26.99674 56.11858708 32.26348967 62.26511152 37.85546875 68.28125 C41.98333192 72.89248748 41.98333192 72.89248748 41.83203125 77.12890625 C40.95703125 80.62890625 40.95703125 80.62890625 39.33203125 82.56640625 C35.8182333 84.13836849 33.77870119 84.27664692 29.95703125 83.62890625 C24.45308264 79.77741334 20.41535792 73.60903114 16.24609375 68.4296875 C12.93956396 64.38398467 9.45701473 60.50678415 5.95703125 56.62890625 C5.94768555 57.26916748 5.93833984 57.90942871 5.92871094 58.5690918 C5.87484278 61.48563 5.79122926 64.4005925 5.70703125 67.31640625 C5.68576172 68.82750977 5.68576172 68.82750977 5.6640625 70.36914062 C5.51639352 74.84351079 5.3965517 77.85401259 3.16015625 81.796875 C0.8465116 83.72081 -0.07727673 84.31182992 -3.04296875 84.25390625 C-3.70296875 84.26679688 -4.36296875 84.2796875 -5.04296875 84.29296875 C-8.19428883 83.246632 -9.24539516 81.36796197 -11.04296875 78.62890625 C-11.55763245 75.28991699 -11.55763245 75.28991699 -11.57641602 71.43945312 C-11.58933937 70.38238914 -11.58933937 70.38238914 -11.6025238 69.30397034 C-11.62514473 66.98482064 -11.61845342 64.66688304 -11.609375 62.34765625 C-11.61461205 60.7300989 -11.62088883 59.11254461 -11.62815857 57.49499512 C-11.63855531 54.10898441 -11.6340116 50.72339416 -11.61938477 47.33740234 C-11.60219015 43.0026296 -11.62570293 38.66918154 -11.66087437 34.33455658 C-11.68285508 30.99557751 -11.68140552 27.65691518 -11.67310905 24.31788635 C-11.67229004 22.71992031 -11.6791441 21.1219309 -11.69388008 19.52403259 C-11.71134199 17.28798417 -11.69677514 15.054313 -11.67407227 12.81835938 C-11.6731105 11.5477063 -11.67214874 10.27705322 -11.67115784 8.96789551 C-10.43494823 2.39711822 -6.36581113 -0.00443267 0 0 Z " fill="#F7F2F2" transform="translate(296.04296875,350.37109375)"/>
<path d="M0 0 C34.79996675 -0.71521854 63.87391284 5.24669738 91 28 C91.81984375 28.66773437 92.6396875 29.33546875 93.484375 30.0234375 C110.86551506 44.7075041 126.17965633 69.25842664 130 92 C129.49667011 95.61838499 128.4313929 98.51571265 126.80688477 101.77441406 C126.35293839 102.69176331 125.898992 103.60911255 125.43128967 104.55426025 C124.93962814 105.53151062 124.44796661 106.50876099 123.94140625 107.515625 C123.43705551 108.52719666 122.93270477 109.53876831 122.41307068 110.58099365 C121.34758621 112.71400116 120.27907871 114.8455009 119.20776367 116.97558594 C117.56374071 120.24753073 115.93264947 123.52569629 114.30273438 126.8046875 C113.26639466 128.87538538 112.22931089 130.94571108 111.19140625 133.015625 C110.70176895 134.00097229 110.21213165 134.98631958 109.70765686 136.00152588 C109.02200905 137.35863678 109.02200905 137.35863678 108.32250977 138.74316406 C107.92137466 139.54304749 107.52023956 140.34293091 107.10694885 141.16705322 C106 143 106 143 104 144 C103.97287934 142.56260487 103.95354933 141.12506137 103.9375 139.6875 C103.92589844 138.88699219 103.91429687 138.08648437 103.90234375 137.26171875 C104 135 104 135 105 132 C107.40476463 100.5058757 99.04882943 68.71301247 78.7109375 44.1171875 C58.2911951 20.33666457 31.25793694 5.15816592 0 1 C0 0.67 0 0.34 0 0 Z " fill="#62B7FE" transform="translate(158,0)"/>
<path d="M0 0 C2.02921838 0.01374025 4.05369977 -0.02004668 6.08251953 -0.05834961 C15.32239121 -0.0446406 22.62127866 1.12308117 29.56323242 7.55175781 C34.92104443 13.19228483 37.55059867 18.62357493 37.86767578 26.45141602 C37.60713667 35.15776459 34.3610134 41.58142719 28.37158203 47.84594727 C19.80917028 55.47803661 9.21347276 53.97132821 -1.56982422 53.57641602 C-1.54887695 54.34308594 -1.52792969 55.10975586 -1.50634766 55.8996582 C-1.42317264 59.37511062 -1.37115847 62.85035364 -1.31982422 66.32641602 C-1.26955078 68.13625977 -1.26955078 68.13625977 -1.21826172 69.98266602 C-1.20537109 71.14282227 -1.19248047 72.30297852 -1.17919922 73.49829102 C-1.15825195 74.56660156 -1.13730469 75.63491211 -1.11572266 76.7355957 C-1.68363585 80.28841178 -2.72772723 81.43251107 -5.56982422 83.57641602 C-9.06982422 84.13891602 -9.06982422 84.13891602 -12.56982422 83.57641602 C-15.45529361 80.83257402 -16.48280726 79.15609255 -17.07775879 75.19273376 C-17.08094116 73.90129959 -17.08412354 72.60986542 -17.08740234 71.27929688 C-17.09441162 70.56322769 -17.1014209 69.84715851 -17.10864258 69.10939026 C-17.12618442 66.75294714 -17.11461579 64.39771413 -17.10107422 62.04125977 C-17.10376996 60.39888784 -17.10765307 58.75651747 -17.1126709 57.114151 C-17.11856048 53.67685712 -17.11001963 50.23997975 -17.09130859 46.80273438 C-17.06850094 42.39851516 -17.08165636 37.99527001 -17.10559845 33.59108639 C-17.12005592 30.20154994 -17.11545108 26.8122443 -17.10508728 23.42270088 C-17.10242077 21.79880215 -17.10568714 20.17488241 -17.11500549 18.55100822 C-17.12517282 16.28148787 -17.109671 14.01354364 -17.08740234 11.74414062 C-17.08421997 10.45350204 -17.0810376 9.16286346 -17.07775879 7.83311462 C-15.63250553 -1.43334321 -7.53713428 -0.07117303 0 0 Z " fill="#F7F4F4" transform="translate(199.56982421875,350.423583984375)"/>
<path d="M0 0 C1.69154647 -0.01653294 3.38302383 -0.04378815 5.07421875 -0.08203125 C7.51892155 -0.13700599 9.96198756 -0.15870539 12.40722656 -0.17333984 C13.1574408 -0.19600922 13.90765503 -0.21867859 14.68060303 -0.24203491 C18.56646726 -0.2265204 21.22771306 0.2694308 24.28955078 2.60253906 C26.79785156 5.35009766 26.79785156 5.35009766 27.46728516 7.49755859 C27.41910645 8.26874023 27.37092773 9.03992188 27.32128906 9.83447266 C27.26682617 10.79546875 27.21236328 11.75646484 27.15625 12.74658203 C26.97884277 14.53032227 26.97884277 14.53032227 26.79785156 16.35009766 C26.69035583 17.46396851 26.69035583 17.46396851 26.58068848 18.6003418 C26.0493838 23.98925111 25.4287628 29.36487496 24.77148438 34.73974609 C24.42210297 37.60623944 24.08587934 40.47406811 23.75097656 43.34228516 C23.53040328 45.1835247 23.30907534 47.02467404 23.08691406 48.86572266 C22.93834457 50.13781586 22.93834457 50.13781586 22.78677368 51.43560791 C21.29779191 63.42517422 21.29779191 63.42517422 17.92285156 67.75634766 C13.00862382 70.2626038 8.23135575 69.9279044 2.79785156 69.85009766 C1.1775 69.87330078 1.1775 69.87330078 -0.47558594 69.89697266 C-8.27788456 69.85844279 -8.27788456 69.85844279 -12.32714844 67.63134766 C-16.24641356 62.86290842 -16.75884095 57.56997941 -17.49121094 51.63916016 C-17.59936127 50.7939682 -17.7075116 49.94877625 -17.81893921 49.07797241 C-18.04579576 47.28808846 -18.26915763 45.49775858 -18.48925781 43.70703125 C-18.82191601 41.01740321 -19.17140861 38.33034725 -19.52246094 35.64306641 C-20.53116374 27.71916791 -21.42989029 19.80289852 -21.60058594 11.81103516 C-21.62556152 10.6513623 -21.65053711 9.49168945 -21.67626953 8.296875 C-21.09799377 4.70275121 -20.01888943 3.57480566 -17.20214844 1.35009766 C-12.44907754 -1.02643779 -5.28289267 0.03783721 0 0 Z " fill="#343333" transform="translate(332.2021484375,101.64990234375)"/>
<path d="M0 0 C6.03475097 4.59513568 10.1082231 12.37110911 14.26855469 18.62695312 C14.72262695 19.30564453 15.17669922 19.98433594 15.64453125 20.68359375 C16.05034424 21.29775146 16.45615723 21.91190918 16.87426758 22.54467773 C17.9537445 24.15764214 17.9537445 24.15764214 20 25 C20.33064453 23.99453125 20.33064453 23.99453125 20.66796875 22.96875 C22.41053219 19.08503091 24.77629481 15.90181573 27.3125 12.5 C27.78623047 11.84902344 28.25996094 11.19804687 28.74804688 10.52734375 C36.25244031 0.36407493 36.25244031 0.36407493 41 -0.625 C45.11289267 0.23185264 46.59686932 1.57735933 49 5 C49.04237176 11.77100704 45.75474959 15.77717559 41.75 21 C40.59893589 22.54164991 39.44789392 24.08331635 38.296875 25.625 C36.70129375 27.75739496 35.10188359 29.87394279 33.42773438 31.9453125 C30.75368774 35.34216669 30.75368774 35.34216669 29.87890625 39.47265625 C31.49105679 43.10701654 33.6292088 46.21088574 35.9375 49.4375 C36.42387939 50.13544678 36.91025879 50.83339355 37.41137695 51.55249023 C39.86286652 55.05558047 42.36807154 58.50838468 44.953125 61.9140625 C45.41340088 62.52967041 45.87367676 63.14527832 46.34790039 63.77954102 C47.21766257 64.93716325 48.10161019 66.08431115 49.00170898 67.21850586 C52.00281876 71.22304479 52.5584102 74.05747568 52 79 C50.4375 81.4375 50.4375 81.4375 48 83 C44.5625 83.5625 44.5625 83.5625 41 83 C35.4076163 78.31296004 31.8001061 71.98484752 27.81640625 65.94921875 C24.84571397 61.51065499 21.95454053 57.60040257 18 54 C17.29875 55.02738281 16.5975 56.05476563 15.875 57.11328125 C0.695018 79.304982 0.695018 79.304982 -3 83 C-6.00739036 83.33954407 -8.09965262 83.56172736 -11 83 C-13.70827945 80.63025548 -14.8675366 79.19814179 -15.26538086 75.59960938 C-14.94852612 72.49577377 -14.07787123 71.10604032 -12.25390625 68.59375 C-11.66738281 67.77334229 -11.08085938 66.95293457 -10.4765625 66.10766602 C-9.84492187 65.24713623 -9.21328125 64.38660645 -8.5625 63.5 C-7.92957031 62.61304443 -7.29664062 61.72608887 -6.64453125 60.81225586 C-3.80348463 56.8339966 -0.92292817 52.88813704 2.00390625 48.97265625 C2.43195557 48.38742187 2.86000488 47.8021875 3.30102539 47.19921875 C4.42519047 45.6646224 5.57123961 44.14612509 6.71875 42.62890625 C8.25870154 40.12592164 8.25870154 40.12592164 7.58203125 37.67578125 C5.31533064 33.84197898 2.79574734 30.23302293 0.1875 26.625 C-0.33392578 25.89539063 -0.85535156 25.16578125 -1.39257812 24.4140625 C-4.40329492 20.19780038 -4.40329492 20.19780038 -7.48168945 16.03100586 C-9.77048529 12.95738678 -10.97368785 11.17249074 -11.5625 7.3125 C-11 4 -11 4 -9.4375 1.5625 C-5.89278157 -0.7097554 -4.14012654 -0.84205963 0 0 Z " fill="#F7F2F2" transform="translate(112,351)"/>
<path d="M0 0 C0.73951904 0.00091644 1.47903809 0.00183289 2.2409668 0.0027771 C3.80100949 0.00880607 5.36104099 0.02453122 6.92089844 0.04931641 C9.30447192 0.08581457 11.68648876 0.09033567 14.0703125 0.08984375 C15.58855505 0.0996762 17.10678711 0.11133377 18.625 0.125 C19.33551514 0.12722565 20.04603027 0.12945129 20.77807617 0.13174438 C24.41897333 0.20134331 27.29273423 0.31894807 30.3125 2.4609375 C32.3125 5.4609375 32.3125 5.4609375 32.125 8.9609375 C31.07702285 13.47530059 31.07702285 13.47530059 28.3125 15.4609375 C25.67700195 15.80151367 25.67700195 15.80151367 22.55078125 15.75390625 C21.43251953 15.74423828 20.31425781 15.73457031 19.16210938 15.72460938 C17.99486328 15.69947266 16.82761719 15.67433594 15.625 15.6484375 C14.44615234 15.63490234 13.26730469 15.62136719 12.05273438 15.60742188 C9.13912867 15.57203395 6.22575736 15.51822661 3.3125 15.4609375 C3.3125 21.7309375 3.3125 28.0009375 3.3125 34.4609375 C4.84261719 34.40292969 6.37273438 34.34492188 7.94921875 34.28515625 C9.9661153 34.23825168 11.98304488 34.19275227 14 34.1484375 C15.00740234 34.10654297 16.01480469 34.06464844 17.05273438 34.02148438 C24.52633394 33.89815765 24.52633394 33.89815765 28.515625 36.75390625 C30.3125 39.4609375 30.3125 39.4609375 30.375 43.0859375 C29.19380935 46.83795485 28.61931458 47.54697381 25.3125 49.4609375 C22.83886719 49.80151367 22.83886719 49.80151367 20.109375 49.75390625 C18.63984375 49.7394043 18.63984375 49.7394043 17.140625 49.72460938 C15.61695313 49.6869043 15.61695313 49.6869043 14.0625 49.6484375 C13.03125 49.63490234 12 49.62136719 10.9375 49.60742188 C8.39560951 49.57211784 5.8539881 49.51831223 3.3125 49.4609375 C3.3125 55.7309375 3.3125 62.0009375 3.3125 68.4609375 C4.98699219 68.40292969 6.66148438 68.34492188 8.38671875 68.28515625 C10.59111795 68.23825414 12.79554731 68.19275447 15 68.1484375 C16.10279297 68.10654297 17.20558594 68.06464844 18.34179688 68.02148438 C26.51088949 67.89808418 26.51088949 67.89808418 30.578125 70.75390625 C32.3125 73.4609375 32.3125 73.4609375 32.375 77.0859375 C31.17567753 80.89555004 30.73957027 81.59989773 27.3125 83.4609375 C24.59910797 83.77713224 22.11993979 83.9289412 19.40625 83.9296875 C18.64453491 83.93730103 17.88281982 83.94491455 17.09802246 83.95275879 C15.49100008 83.96354196 13.88390771 83.96642012 12.27685547 83.96191406 C9.82010153 83.96094051 7.3664603 84.00259954 4.91015625 84.046875 C3.34636067 84.05208151 1.78255425 84.0547702 0.21875 84.0546875 C-0.51363892 84.07108276 -1.24602783 84.08747803 -2.00061035 84.10437012 C-5.52938709 84.05660851 -7.28330455 83.84476737 -9.88037109 81.3785553 C-12.14416214 77.72365441 -12.19452071 75.44810759 -12.20507812 71.16381836 C-12.2120874 70.44774918 -12.21909668 69.73167999 -12.22631836 68.99391174 C-12.2438602 66.63746862 -12.23229157 64.28223562 -12.21875 61.92578125 C-12.22144574 60.28340933 -12.22532885 58.64103896 -12.23034668 56.99867249 C-12.23623627 53.5613786 -12.22769541 50.12450124 -12.20898438 46.68725586 C-12.18617672 42.28303664 -12.19933214 37.8797915 -12.22327423 33.47560787 C-12.23773171 30.08607142 -12.23312686 26.69676578 -12.22276306 23.30722237 C-12.22009655 21.68332364 -12.22336293 20.05940389 -12.23268127 18.43552971 C-12.2428486 16.16600936 -12.22734678 13.89806512 -12.20507812 11.62866211 C-12.20189575 10.33802353 -12.19871338 9.04738495 -12.19543457 7.71763611 C-11.6875 4.4609375 -11.6875 4.4609375 -9.87463379 2.0433197 C-6.72112824 -0.23822845 -3.74420503 -0.0757311 0 0 Z " fill="#F7F4F4" transform="translate(46.6875,350.5390625)"/>
<path d="M0 0 C1.10572105 -0.00574036 1.10572105 -0.00574036 2.23377991 -0.01159668 C3.78957488 -0.01431302 5.34541573 -0.00697106 6.90112305 0.00976562 C9.27431875 0.03115233 11.6444772 0.00997426 14.01757812 -0.015625 C15.53255873 -0.01298107 17.04753745 -0.00785474 18.5625 0 C19.26785385 -0.00809692 19.9732077 -0.01619385 20.69993591 -0.02453613 C24.234019 0.04222869 26.26494974 0.48040421 29.29907227 2.34570312 C31.34765625 4.53125 31.34765625 4.53125 31.91015625 8.03125 C31.25605259 12.10122831 30.54216191 13.04214719 27.34765625 15.53125 C24.69042969 15.98535156 24.69042969 15.98535156 21.70703125 15.921875 C20.63710938 15.90898437 19.5671875 15.89609375 18.46484375 15.8828125 C17.35367187 15.84929687 16.2425 15.81578125 15.09765625 15.78125 C13.97101563 15.76320313 12.844375 15.74515625 11.68359375 15.7265625 C8.90458446 15.67946065 6.12601256 15.60771852 3.34765625 15.53125 C3.34765625 21.80125 3.34765625 28.07125 3.34765625 34.53125 C4.889375 34.48484375 6.43109375 34.4384375 8.01953125 34.390625 C10.04555355 34.35310607 12.0715968 34.31670604 14.09765625 34.28125 C15.1134375 34.24773437 16.12921875 34.21421875 17.17578125 34.1796875 C24.67811334 34.0809726 24.67811334 34.0809726 28.01953125 36.328125 C29.98067165 39.58131084 29.87898325 41.81196097 29.34765625 45.53125 C28.01953125 47.734375 28.01953125 47.734375 25.34765625 49.53125 C21.58744385 50.02892517 17.88206499 49.90611628 14.09765625 49.78125 C13.06640625 49.76320313 12.03515625 49.74515625 10.97265625 49.7265625 C8.43059175 49.67948723 5.88900558 49.60774546 3.34765625 49.53125 C3.34765625 55.80125 3.34765625 62.07125 3.34765625 68.53125 C5.87679688 68.46164062 5.87679688 68.46164062 8.45703125 68.390625 C10.67055522 68.35310764 12.88409832 68.31670745 15.09765625 68.28125 C16.20882813 68.24773437 17.32 68.21421875 18.46484375 68.1796875 C19.53476562 68.16679687 20.6046875 68.15390625 21.70703125 68.140625 C23.18381348 68.1092041 23.18381348 68.1092041 24.69042969 68.07714844 C28.11089233 68.66168174 29.26234805 69.80542829 31.34765625 72.53125 C31.89323049 76.35026971 32.06378229 78.51302251 29.81054688 81.71679688 C26.44823234 84.19387079 23.46140943 84.10694314 19.44140625 84.0625 C18.67969116 84.0663269 17.91797607 84.07015381 17.13317871 84.07409668 C15.52610957 84.07681313 13.91899601 84.06947044 12.31201172 84.05273438 C9.85544038 84.03131786 7.40179314 84.05254178 4.9453125 84.078125 C3.38150398 84.07548167 1.81769727 84.07035658 0.25390625 84.0625 C-0.84467712 84.07464539 -0.84467712 84.07464539 -1.9654541 84.08703613 C-5.1560959 84.0285214 -7.22357018 83.83972638 -9.84521484 81.95361328 C-12.32771258 78.62595285 -12.15989918 76.3860993 -12.16992188 72.25585938 C-12.17693115 71.53018265 -12.18394043 70.80450592 -12.19116211 70.05683899 C-12.20874092 67.66250127 -12.19712081 65.26934934 -12.18359375 62.875 C-12.18628872 61.20877862 -12.19017119 59.54255877 -12.19519043 57.87634277 C-12.20108528 54.38599662 -12.19252325 50.89606021 -12.17382812 47.40576172 C-12.1510382 42.93313737 -12.16416141 38.4614731 -12.18811798 33.98888397 C-12.20257652 30.54873427 -12.1979698 27.10881197 -12.18760681 23.6686554 C-12.18493966 22.0196369 -12.1882089 20.37059773 -12.19752502 18.72160339 C-12.20769204 16.41606008 -12.19218989 14.11206843 -12.16992188 11.80664062 C-12.1667395 10.49522095 -12.16355713 9.18380127 -12.16027832 7.8326416 C-11.65234375 4.53125 -11.65234375 4.53125 -9.83848572 2.10888672 C-6.69882535 -0.15685977 -3.72974836 -0.04269215 0 0 Z " fill="#F7F5F5" transform="translate(365.65234375,350.46875)"/>
<path d="M0 0 C3.5 0.5 3.5 0.5 5.69433594 1.86425781 C8.56063992 6.04822453 7.99206417 10.2219402 7.890625 15.171875 C7.88496521 16.20942932 7.87930542 17.24698364 7.87347412 18.315979 C7.85109491 21.62778992 7.80089419 24.93851644 7.75 28.25 C7.72993706 30.49607812 7.71168594 32.74217321 7.6953125 34.98828125 C7.65122518 40.49255709 7.58429741 45.99620107 7.5 51.5 C8.3878418 51.47905273 9.27568359 51.45810547 10.19042969 51.43652344 C13.49294455 51.36824323 16.7947067 51.3181513 20.09765625 51.28027344 C21.52551121 51.26019018 22.95328425 51.23291748 24.38085938 51.19824219 C26.43640368 51.14957331 28.49085855 51.12700033 30.546875 51.109375 C32.40070801 51.0779541 32.40070801 51.0779541 34.29199219 51.04589844 C37.5 51.5 37.5 51.5 39.90332031 53.30566406 C42.23130623 56.50504288 42.05078456 58.6445081 41.5 62.5 C40.04492188 64.68334961 40.04492188 64.68334961 37.5 66.5 C34.42913536 67.10500486 31.40350833 67.0843375 28.28125 67.06640625 C27.38635864 67.07260483 26.49146729 67.07880341 25.56945801 67.08518982 C23.6799427 67.09228467 21.79036483 67.08911979 19.90087891 67.07641602 C17.0095731 67.06254592 14.12150139 67.0966286 11.23046875 67.13476562 C9.39322837 67.13571681 7.55598395 67.13385806 5.71875 67.12890625 C4.85511841 67.14216446 3.99148682 67.15542267 3.10168457 67.16908264 C1.89022766 67.15028297 1.89022766 67.15028297 0.65429688 67.13110352 C-0.40682312 67.12966087 -0.40682312 67.12966087 -1.48937988 67.12818909 C-4.67269787 66.13360756 -5.75967749 64.26759456 -7.5 61.5 C-8.00793457 58.76170349 -8.00793457 58.76170349 -8.01757812 55.76342773 C-8.03018677 54.63553329 -8.04279541 53.50763885 -8.05578613 52.3455658 C-8.04768921 51.13711502 -8.03959229 49.92866425 -8.03125 48.68359375 C-8.0350769 47.43498062 -8.03890381 46.18636749 -8.04284668 44.8999176 C-8.0455668 42.26254564 -8.04021935 39.62666093 -8.02148438 36.98950195 C-7.99867043 33.614261 -8.0118386 30.2402907 -8.03577423 26.86509609 C-8.0537228 23.63788334 -8.0411488 20.41082309 -8.03125 17.18359375 C-8.03934692 15.97311874 -8.04744385 14.76264374 -8.05578613 13.51548767 C-8.04317749 12.39074539 -8.03056885 11.26600311 -8.01757812 10.10717773 C-8.01439575 9.11854233 -8.01121338 8.12990692 -8.00793457 7.11131287 C-7.07921964 2.33675056 -4.66448873 0.66635553 0 0 Z " fill="#444444" transform="translate(170.5,60.5)"/>
<path d="M0 0 C17.58536585 0 17.58536585 0 22.640625 4.44140625 C28.32803973 10.39110467 30.12795664 16.89903659 30.375 25 C30.15147812 32.98582718 28.09644062 39.73865866 23 46 C14.75723282 52.22413032 11.8576218 51 0 51 C0 34.17 0 17.34 0 0 Z " fill="#D83333" transform="translate(432,367)"/>
<path d="M0 0 C4.50673685 0.79065559 5.73662582 2.07674175 8.5625 5.625 C9.19741821 8.96398926 9.19741821 8.96398926 9.20947266 12.81445312 C9.22261505 13.87151711 9.22261505 13.87151711 9.23602295 14.94993591 C9.25795221 17.26934169 9.24348981 19.58682635 9.2265625 21.90625 C9.22993256 23.52380742 9.23478677 25.14136236 9.24105835 26.75891113 C9.24842081 30.14502123 9.2377452 33.53047075 9.21435547 36.91650391 C9.18586706 41.25132068 9.20227453 45.58458966 9.23221779 49.91934967 C9.2503083 53.25835783 9.24452492 56.59700057 9.23157883 59.9360199 C9.22824961 61.53397303 9.23231491 63.13195961 9.24397659 64.72987366 C9.25671553 66.96598839 9.2372718 69.19961684 9.20947266 71.43554688 C9.20549469 72.70619995 9.20151672 73.97685303 9.19741821 75.28601074 C8.39239295 79.51958075 6.92385895 81.00616058 3.5625 83.625 C0 84.25 0 84.25 -3.4375 83.625 C-6.29198021 80.89185795 -7.34709641 79.21928248 -7.94543457 75.28601074 C-7.94861694 74.01535767 -7.95179932 72.74470459 -7.95507812 71.43554688 C-7.96559204 70.37848289 -7.96559204 70.37848289 -7.97631836 69.30006409 C-7.99386004 66.98088661 -7.98229048 64.66293892 -7.96875 62.34375 C-7.97144605 60.72619392 -7.97532941 59.10863942 -7.98034668 57.49108887 C-7.9862365 54.10506727 -7.97769582 50.71946845 -7.95898438 47.33349609 C-7.93619466 42.99887183 -7.94932058 38.66523827 -7.97327423 34.33065033 C-7.98774645 30.99168468 -7.98311979 27.6529529 -7.97276306 24.3139801 C-7.97009969 22.71602765 -7.97335185 21.11805378 -7.98268127 19.52012634 C-7.99287097 17.28433199 -7.97731492 15.05012928 -7.95507812 12.81445312 C-7.95189575 11.54380005 -7.94871338 10.27314697 -7.94543457 8.96398926 C-7.14637023 3.71121184 -5.29524572 0.96277195 0 0 Z " fill="#F6EFEF" transform="translate(258.4375,350.375)"/>
<path d="M0 0 C0.79622772 0.00141495 1.59245544 0.0028299 2.41281128 0.00428772 C4.9601413 0.0098928 7.50738397 0.02244611 10.0546875 0.03515625 C11.77994665 0.0401706 13.50520717 0.04473362 15.23046875 0.04882812 C19.46357541 0.05986388 23.69661664 0.07713189 27.9296875 0.09765625 C27.9296875 0.42765625 27.9296875 0.75765625 27.9296875 1.09765625 C18.0296875 1.59265625 18.0296875 1.59265625 7.9296875 2.09765625 C8.9196875 3.58265625 8.9196875 3.58265625 9.9296875 5.09765625 C10.68998337 12.46868592 9.65210485 19.99826388 8.72265625 27.3125 C8.53356438 28.83974449 8.53356438 28.83974449 8.34065247 30.39784241 C8.07432495 32.52845231 7.80440309 34.65861581 7.53100586 36.78833008 C7.11537696 40.04936177 6.72033933 43.31248496 6.32617188 46.57617188 C6.06374567 48.65510554 5.80011667 50.7338878 5.53515625 52.8125 C5.41939743 53.78541489 5.30363861 54.75832977 5.18437195 55.76072693 C5.06447403 56.66589554 4.94457611 57.57106415 4.82104492 58.50366211 C4.7211174 59.29655136 4.62118988 60.08944061 4.51823425 60.90635681 C3.9296875 63.09765625 3.9296875 63.09765625 0.9296875 67.09765625 C7.8596875 67.42765625 14.7896875 67.75765625 21.9296875 68.09765625 C21.9296875 68.42765625 21.9296875 68.75765625 21.9296875 69.09765625 C18.03410662 69.21408929 14.13897492 69.28498534 10.2421875 69.34765625 C9.13939453 69.38117188 8.03660156 69.4146875 6.90039062 69.44921875 C-1.23959152 69.54758711 -1.23959152 69.54758711 -5.21484375 67.39453125 C-9.09361961 62.59301503 -9.62625272 57.32363019 -10.359375 51.38671875 C-10.46752533 50.54152679 -10.57567566 49.69633484 -10.68710327 48.82553101 C-10.91395982 47.03564706 -11.1373217 45.24531717 -11.35742188 43.45458984 C-11.69008007 40.7649618 -12.03957267 38.07790584 -12.390625 35.390625 C-13.3993278 27.4667265 -14.29805435 19.55045712 -14.46875 11.55859375 C-14.49372559 10.3989209 -14.51870117 9.23924805 -14.54443359 8.04443359 C-13.96615784 4.45030981 -12.88705349 3.32236426 -10.0703125 1.09765625 C-6.89740537 -0.48879732 -3.48205866 -0.02312588 0 0 Z " fill="#474743" transform="translate(325.0703125,101.90234375)"/>
<path d="M0 0 C1.62035156 -0.03577148 1.62035156 -0.03577148 3.2734375 -0.07226562 C7.92293604 -0.06365544 11.10648208 0.06573882 15.2109375 2.34765625 C17.97636366 7.31697008 17.72510067 11.9702091 17.625 17.5625 C17.64433594 18.64273438 17.66367187 19.72296875 17.68359375 20.8359375 C17.6549143 25.48200765 17.49419646 28.67553605 15.2109375 32.7734375 C10.24447154 35.54064116 5.59042566 35.28756729 0 35.1875 C-1.62035156 35.21650391 -1.62035156 35.21650391 -3.2734375 35.24609375 C-7.89800813 35.21754702 -11.11519271 35.04580714 -15.2109375 32.80859375 C-18.03594931 27.68286271 -17.72324292 22.75376018 -17.625 17 C-17.64433594 15.86369141 -17.66367187 14.72738281 -17.68359375 13.55664062 C-17.63628476 5.53776615 -17.63628476 5.53776615 -15.2109375 1.8203125 C-10.1767323 -0.15172409 -5.35831365 -0.05435044 0 0 Z " fill="#343333" transform="translate(335,204.4375)"/>
<path d="M0 0 C4.02058602 -0.11686443 8.04073082 -0.18747388 12.0625 -0.25 C13.19623047 -0.28351563 14.32996094 -0.31703125 15.49804688 -0.3515625 C22.21935957 -0.42994516 26.71734503 -0.34959639 32 4 C36.80393229 9.95842569 36.48762824 15.51792611 36.25 22.9375 C36.1675 26.588125 36.085 30.23875 36 34 C28.08 34 20.16 34 12 34 C11.75 22.875 11.75 22.875 11.70214844 19.40185547 C11.50073928 13.35640066 11.12966393 9.54263032 7 5 C5.16680754 3.5128497 5.16680754 3.5128497 3.25 2.625 C2.1775 2.08875 1.105 1.5525 0 1 C0 0.67 0 0.34 0 0 Z " fill="#E2E2E2" transform="translate(476,273)"/>
<path d="M0 0 C7.92 0 15.84 0 24 0 C24.0825 3.650625 24.165 7.30125 24.25 11.0625 C24.28641602 12.19953369 24.32283203 13.33656738 24.36035156 14.50805664 C24.43015305 20.91121712 24.07526375 24.94535835 20 30 C13.8699758 35.04729748 7.73591612 34.47684346 0.0625 34.25 C-1.09830078 34.23195313 -2.25910156 34.21390625 -3.45507812 34.1953125 C-6.30424747 34.14841259 -9.15168531 34.08279059 -12 34 C-11.01 33.34 -10.02 32.68 -9 32 C-4.04596762 28.23470722 -4.04596762 28.23470722 -1 23 C-0.63675609 20.39249078 -0.63675609 20.39249078 -0.5859375 17.578125 C-0.55032715 16.65418945 -0.5147168 15.73025391 -0.47802734 14.77832031 C-0.44402832 13.61397461 -0.4100293 12.44962891 -0.375 11.25 C-0.25125 7.5375 -0.1275 3.825 0 0 Z " fill="#E2E2E2" transform="translate(488,478)"/>
<path d="M0 0 C1 3 1 3 -0.03222656 5.6796875 C-0.56299805 6.73414063 -1.09376953 7.78859375 -1.640625 8.875 C-2.21683594 10.02484375 -2.79304688 11.1746875 -3.38671875 12.359375 C-3.69270996 12.95685547 -3.99870117 13.55433594 -4.31396484 14.16992188 C-5.24365945 15.98760334 -6.15612314 17.81315896 -7.06640625 19.640625 C-13.11375241 31.60122982 -13.11375241 31.60122982 -20.89794922 34.24560547 C-24.92126536 35.53604006 -28.94851529 36.80051342 -33 38 C-34.16789062 38.34804687 -35.33578125 38.69609375 -36.5390625 39.0546875 C-49.40322564 42.21800631 -62.85239292 41.26837469 -76 41 C-73.30056502 38.30056502 -70.56241811 38.30173922 -66.9375 37.75 C-40.38126331 33.15795273 -18.29147284 19.42942161 0 0 Z " fill="#64B8FC" transform="translate(234,198)"/>
<path d="M0 0 C16.0154603 -0.45326774 16.0154603 -0.45326774 21.875 4.625 C23.65925736 8.39176554 23.76903725 11.92198594 23 16 C21.06658451 19.57052209 18.91644101 21.69451966 15 23 C12.42502932 23.07035439 9.88550071 23.0934934 7.3125 23.0625 C3.6928125 23.0315625 3.6928125 23.0315625 0 23 C0 15.41 0 7.82 0 0 Z " fill="#D83737" transform="translate(198,366)"/>
<path d="M0 0 C14.02413793 -0.57241379 14.02413793 -0.57241379 19 4 C21 6 21 6 21.3125 9.3125 C20.98064203 13.22842406 20.48865133 14.99645529 18 18 C12.22823626 20.97864236 6.34625945 20.12820726 0 20 C0 13.4 0 6.8 0 0 Z " fill="#D83333" transform="translate(301,366)"/>
<path d="M0 0 C3.19815519 2.27424369 4.74357624 3.65745661 5.49316406 7.58203125 C5.67393086 10.73460413 5.6815114 13.8428965 5.625 17 C5.64433594 18.08023438 5.66367187 19.16046875 5.68359375 20.2734375 C5.6292912 29.0704507 5.6292912 29.0704507 2.4609375 32.25 C1.64882813 32.8275 0.83671875 33.405 0 34 C-3.28875604 31.70831127 -4.75781643 30.32193861 -5.49316406 26.30810547 C-5.67381841 23.00522791 -5.68146897 19.74469937 -5.625 16.4375 C-5.64433594 15.30119141 -5.66367187 14.16488281 -5.68359375 12.99414062 C-5.63462645 4.6941837 -5.63462645 4.6941837 -2.4609375 1.22265625 C-1.64882813 0.81917969 -0.83671875 0.41570312 0 0 Z " fill="#454443" transform="translate(323,205)"/>
</svg>
