<svg xmlns="http://www.w3.org/2000/svg" version="1.1" xmlns:xlink="http://www.w3.org/1999/xlink" xmlns:svgjs="http://svgjs.dev/svgjs" width="100%" height="100%" viewBox="0 0 1000 600"><rect width="1000" height="600" x="0" y="0" fill="#28535c"/><g><rect width="333.3333333333333" height="333.3333333333333" rx="13.333333333333334" ry="13.333333333333334" y="260.1480384238928" fill="#a4b494" transform="matrix(0.5253739891102966,0,0,0.5253739891102968,0,75.76268780387663)" x="237.92597961425778"/><path d="M327.5692108378108 501.81470590864086L327.5692108378108 351.81470995785503L354.33833881929775 351.81470995785503L405.91949620617794 455.4745921662154L403.9955687923907 455.4745921662154L455.5767261792709 351.81470995785503L481.616088590011 351.81470995785503L481.616088590011 501.81470590864086L462.74169723751277 501.81470590864086L462.74169723751277 371.1866687449534L466.09198463048693 371.1866687449534L411.1605398506326 482.9403145561426L398.754525147936 482.9403145561426L344.0552785042284 371.88326315339356L346.2114040541623 371.88326315339356L346.2114040541623 501.81470590864086L327.5692108378108 501.81470590864086Z " fill="#28535c" transform="matrix(0.5253739891102966,0,0,0.5253739891102968,0,75.76268780387663)"/><path d="M654.5926483312293 499.2587341253067L654.5926483312293 364.8620660860444L678.5771930255427 364.8620660860444L724.792765515824 457.73902044754254L723.0689692428747 457.73902044754254L769.2845417331562 364.8620660860444L792.6152326687645 364.8620660860444L792.6152326687645 499.2587341253067L775.7041968186229 499.2587341253067L775.7041968186229 382.2189113171211L778.7059799835865 382.2189113171211L729.4886243283414 482.3476982751651L718.3731104303573 482.3476982751651L669.363799152882 382.84304445043045L671.2956398036011 382.84304445043045L671.2956398036011 499.2587341253067L654.5926483312293 499.2587341253067ZM871.374889967315 501.81470790933514L871.374889967315 501.81470790933514Q858.0897704154462 501.81470790933514 847.6578309015628 495.0384053191202Q837.2258913876793 488.2323821035096 831.1926044323563 476.1360875674681Q825.1593174770334 464.06951365682227 825.1593174770334 448.3175821971122L825.1593174770334 448.3175821971122Q825.1593174770334 431.5254288485533 831.133163181565 419.4291343125118Q837.1367295114923 407.36256040186595 847.5686690253757 400.8834640656078Q858.0006085392591 394.40436772934976 871.374889967315 394.40436772934976L871.374889967315 394.40436772934976Q883.0253751224212 394.40436772934976 891.2579883570245 399.1002265418671Q899.5203222170234 403.8258059797801 904.5431079088931 411.8503748366135Q909.5658936007629 419.874943693447 911.5571755022735 429.97995632797796Q913.5187367783883 440.084968962509 912.6568386419136 450.9032766065363L912.6568386419136 450.9032766065363L838.6227607812762 450.9032766065363L838.6227607812762 440.61994021963125L901.6602072455122 440.61994021963125L896.7265834298294 443.8297677623646Q897.0535103091819 437.52899517848056 896.0430090457288 431.19850196920083Q895.00278715688 424.89772938531684 892.2387689950818 419.60745806488586Q889.445030207888 414.31718674445494 884.4222445160182 411.1073592017216Q879.3994588241484 407.8975316589882 871.5829343450847 407.8975316589882L871.5829343450847 407.8975316589882Q861.7454073391148 407.8975316589882 855.1177078758783 412.920317350858Q848.4602877872461 417.94310304272784 845.1612983683257 426.11627502653965Q841.8325883240096 434.3191676357472 841.8325883240096 443.8297677623646L841.8325883240096 443.8297677623646L841.8325883240096 450.69523222876654Q841.8325883240096 461.3946573712111 845.1018571175343 469.83531498358406Q848.371125911059 478.275972595957 854.8799428727128 483.2095964116398Q861.4184804597622 488.1432202273226 871.374889967315 488.1432202273226L871.374889967315 488.1432202273226Q881.3312994748675 488.1432202273226 887.7509545603342 483.3284789132225Q894.1706096458009 478.5137375991224 895.5377584140023 469.09229934869205L895.5377584140023 469.09229934869205L912.8946036450791 469.09229934869205Q911.2896898737123 479.2567532340144 905.6130504231376 486.5680270813516Q899.9364109725628 493.9090215540844 891.1688264808374 497.8618647317098Q882.401241989112 501.81470790933514 871.374889967315 501.81470790933514ZM982.3219845693862 501.81470790933514L982.3219845693862 501.81470790933514Q969.8987631539921 501.81470790933514 959.5262648909 495.1275671953072Q949.1537666278078 488.4404264812794 942.9421559201108 476.3144113198422Q936.7305452124139 464.15867553300933 936.7305452124139 447.6934490638029L936.7305452124139 447.6934490638029Q936.7305452124139 431.31738447078357 942.8529940439239 419.3399724363248Q948.9457222500381 407.36256040186595 959.0507348845691 400.8834640656078Q969.1557475191001 394.40436772934976 981.2520420551417 394.40436772934976L981.2520420551417 394.40436772934976Q992.4864384547085 394.40436772934976 1000.9865373178728 399.87296280215475Q1009.4866361810372 405.31183724956406 1014.2122156189502 415.59517363646916Q1018.9080744314675 425.8487893979786 1018.9080744314675 440.41189584186145L1018.9080744314675 440.41189584186145L1012.4884193460008 440.41189584186145Q1012.4884193460008 430.2474419565391 1008.4761349175841 423.2928156139501Q1004.4638504891673 416.33818927136116 998.0441954037004 412.74199359848393Q991.6245403182338 409.1755185510024 984.2538252201053 409.1755185510024L984.2538252201053 409.1755185510024Q975.9023294839193 409.1755185510024 969.0071443921217 413.8119361127284Q962.1119593003242 418.47807429985005 957.9807923703246 427.09705566459706Q953.8496254403252 435.71603702934414 953.8496254403252 447.6934490638029L953.8496254403252 447.6934490638029Q953.8496254403252 459.87890547603143 957.9807923703246 468.6464899677569Q962.1119593003242 477.443795084878 969.0071443921217 482.13965389739536Q975.9023294839193 486.8355127099127 984.2538252201053 486.8355127099127L984.2538252201053 486.8355127099127Q991.2084515626942 486.8355127099127 997.6875478989524 483.2095964116398Q1004.1369236098147 479.58368011336694 1008.3275317906056 472.56961251998655Q1012.4884193460008 465.5555449266062 1012.4884193460008 455.59913541905365L1012.4884193460008 455.59913541905365L1018.9080744314675 455.59913541905365Q1018.9080744314675 470.489168742289 1014.033891866576 480.80222575458976Q1009.1894299270804 491.1152827668905 1000.8973754416858 496.46499533811283Q992.6053209562912 501.81470790933514 982.3219845693862 501.81470790933514ZM1029.1914108183728 499.2587341253067L1015.2821581331946 499.2587341253067L1012.4884193460008 475.3039100563891L1012.4884193460008 353.3304634325208L1029.1914108183728 353.3304634325208L1029.1914108183728 499.2587341253067ZM1081.9455208957033 372.7974730666908L1081.9455208957033 372.7974730666908Q1076.8038527022509 372.7974730666908 1073.8020695372875 369.85513115251854Q1070.8002863723236 366.9127892383463 1070.8002863723236 362.0980479242462L1070.8002863723236 362.0980479242462Q1070.8002863723236 357.37246848633316 1073.8020695372875 354.608450324535Q1076.8038527022509 351.8147115373411 1081.9455208957033 351.8147115373411L1081.9455208957033 351.8147115373411Q1087.0574684637604 351.8147115373411 1090.0592516287238 354.608450324535Q1093.0610347936877 357.37246848633316 1093.0610347936877 362.0980479242462L1093.0610347936877 362.0980479242462Q1093.0610347936877 366.9127892383463 1090.0592516287238 369.85513115251854Q1087.0574684637604 372.7974730666908 1081.9455208957033 372.7974730666908ZM1090.2672960064938 499.2587341253067L1073.5940251595175 499.2587341253067L1073.5940251595175 396.7522971356084L1090.2672960064938 396.7522971356084L1090.2672960064938 499.2587341253067ZM1179.310289691949 501.81470790933514L1179.310289691949 501.81470790933514Q1165.8171257623108 501.81470790933514 1154.582729362744 496.97024596983937Q1143.3483329631772 492.096063404948 1136.512589122171 482.55574265293484Q1129.647124655769 473.0451425263174 1129.4390802779994 459.01700733955676L1129.4390802779994 459.01700733955676L1145.6962623694358 459.01700733955676Q1145.6962623694358 468.4384455899871 1150.3029593057663 474.5014531707057Q1154.9096562420964 480.5347401260287 1162.488415717995 483.4770820402009Q1170.0968958192884 486.41942395437314 1179.0725246887841 486.41942395437314L1179.0725246887841 486.41942395437314Q1188.8208898185667 486.41942395437314 1195.9835605389253 483.3284789132225Q1203.1462312592844 480.2078132466762 1207.0693538115138 475.12558630401503Q1210.9627557383478 470.0433593613538 1210.9627557383478 463.95063115523953L1210.9627557383478 463.95063115523953Q1210.9627557383478 455.39109104128386 1205.7319256687083 450.10081972085294Q1200.471374973673 444.810548400422 1190.2177592121634 441.4818383561059L1190.2177592121634 441.4818383561059L1166.470979521016 433.13034261992Q1149.767988048644 427.15649691538846 1141.2084479346881 419.4291343125118Q1132.6489078207328 411.73149233503085 1132.6489078207328 397.82223964985286L1132.6489078207328 397.82223964985286Q1132.6489078207328 382.2189113171211 1144.6857611059827 372.35166368575557Q1156.722614391233 362.51413667978574 1178.8644803110142 362.51413667978574L1178.8644803110142 362.51413667978574Q1199.4014324594286 362.51413667978574 1210.9627557383478 371.99501618100743Q1222.524079017267 381.4461750568335 1224.2478752902166 397.4061508943133L1224.2478752902166 397.4061508943133L1207.7529281956145 397.4061508943133Q1206.1480144242478 388.1035951454657 1199.0447849546804 382.9024857012218Q1191.9118348597171 377.7013762569779 1178.8644803110142 377.7013762569779L1178.8644803110142 377.7013762569779Q1165.6090813845412 377.7013762569779 1158.2086456610168 383.5860600853224Q1150.8379305628882 389.470743913667 1150.8379305628882 398.4760934085578L1150.8379305628882 398.4760934085578Q1150.8379305628882 405.8468085066863 1155.50406875001 410.1860198144555Q1160.140486311736 414.5252311222247 1170.0968958192884 417.94310304272784L1170.0968958192884 417.94310304272784L1197.9154011896444 427.57258567092794Q1212.359625131945 432.387326985028 1220.770562118922 441.0657496005664Q1229.1517784805037 449.7144515907091 1229.1517784805037 463.53454239970006L1229.1517784805037 463.53454239970006Q1229.1517784805037 474.2339675421446 1223.445418404533 482.88266953228737Q1217.709337703167 491.5610921478257 1206.593823805183 496.7027603412783Q1195.4485892818034 501.81470790933514 1179.310289691949 501.81470790933514ZM1297.0931281350267 501.81470790933514L1297.0931281350267 501.81470790933514Q1288.741632398841 501.81470790933514 1282.1139329356042 498.6048803666018Q1275.486233472368 495.39505282386835 1271.6225521709293 488.97539773840157Q1267.788591494887 482.55574265293484 1267.788591494887 472.92626002473475L1267.788591494887 472.92626002473475L1267.788591494887 368.517703009713L1284.2538179640933 368.517703009713L1284.2538179640933 472.5101712691952Q1284.2538179640933 488.35126460509235 1299.0249687857458 488.35126460509235L1299.0249687857458 488.35126460509235Q1303.4236213443064 488.35126460509235 1307.5250676489104 487.3704839670349Q1311.6562345789098 486.41942395437314 1316.7979027723622 484.48758330365405L1316.7979027723622 484.48758330365405L1319.1458321786208 496.46499533811283Q1313.677237105816 498.8426453697672 1308.2680832838023 500.32867663955113Q1302.8886500871845 501.81470790933514 1297.0931281350267 501.81470790933514ZM1316.560137769197 408.52166479229743L1251.2936444002848 408.52166479229743L1251.2936444002848 396.9603415133782L1316.560137769197 396.9603415133782L1316.560137769197 408.52166479229743ZM1383.1343386555186 501.81470790933514L1383.1343386555186 501.81470790933514Q1369.314247846528 501.81470790933514 1358.5553814532918 495.7219797032208Q1347.8262356854516 489.62925149710657 1341.6146249777544 477.6518394626478Q1335.4030142700576 465.67442742818895 1335.4030142700576 448.1095378193424L1335.4030142700576 448.1095378193424Q1335.4030142700576 430.4554863343089 1341.6146249777544 418.53751555064144Q1347.8262356854516 406.5898241415783 1358.5553814532918 400.497095935464Q1369.314247846528 394.40436772934976 1383.1343386555186 394.40436772934976L1383.1343386555186 394.40436772934976Q1396.805826337531 394.40436772934976 1407.564692730767 400.497095935464Q1418.3235591240032 406.5898241415783 1424.4757285809087 418.53751555064144Q1430.6278980378142 430.4554863343089 1430.6278980378142 448.1095378193424L1430.6278980378142 448.1095378193424Q1430.6278980378142 465.67442742818895 1424.4757285809087 477.6518394626478Q1418.3235591240032 489.62925149710657 1407.564692730767 495.7219797032208Q1396.805826337531 501.81470790933514 1383.1343386555186 501.81470790933514ZM1382.6885292745833 487.2813220908479L1382.6885292745833 487.2813220908479Q1392.6449387821363 487.2813220908479 1399.599565124725 482.52602202753917Q1406.554191467314 477.7410013388348 1410.1503871401915 468.9734168471094Q1413.7168621876726 460.20583235538396 1413.7168621876726 448.1095378193424L1413.7168621876726 448.1095378193424Q1413.7168621876726 429.83135320099956 1406.1381027117745 419.2805311855334Q1398.5296226104806 408.7297091700672 1383.550427411058 408.7297091700672L1383.550427411058 408.7297091700672Q1373.5048560273185 408.7297091700672 1366.5799503101252 413.5147298587716Q1359.6847652183278 418.2700299220803 1356.1182901708462 427.09705566459706Q1352.5220944979687 435.9240814071139 1352.5220944979687 448.1095378193424L1352.5220944979687 448.1095378193424Q1352.5220944979687 466.2093986853112 1360.1602952246585 476.7305000753817Q1367.8282165767437 487.2813220908479 1382.6885292745833 487.2813220908479ZM1498.9853364478768 501.81470790933514L1498.9853364478768 501.81470790933514Q1486.6809975340657 501.81470790933514 1476.0410136424125 495.1870084460986Q1465.4010297507593 488.5593089828621 1458.8624921637097 476.4630144468206Q1452.353675202056 464.36671991077907 1452.353675202056 447.90149344157265L1452.353675202056 447.90149344157265Q1452.353675202056 430.9904575914311 1458.8624921637097 419.01304555697226Q1465.4010297507593 407.0356335225135 1476.0410136424125 400.70514031323376Q1486.6809975340657 394.40436772934976 1498.9853364478768 394.40436772934976L1498.9853364478768 394.40436772934976Q1507.6637590634155 394.40436772934976 1514.5589441552129 397.0197827641695Q1521.4541292470103 399.6351977989893 1526.5957974404632 404.2418947353196Q1531.7374656339157 408.8485916716499 1535.0958963036273 414.6738342492031Q1538.4840475987348 420.49907682675627 1540.0889613701015 426.918731912223L1540.0889613701015 426.918731912223L1522.9698811421904 428.43448380740267Q1520.2950248565794 419.5480168140945 1514.0239728980905 414.3469073698506Q1507.782641564998 409.1755185510024 1498.7772920701073 409.1755185510024L1498.7772920701073 409.1755185510024Q1491.1985325942092 409.1755185510024 1484.5113918801812 413.5147298587716Q1477.8242511661533 417.8242205411451 1473.6336429853623 426.4432019058921Q1469.4727554299675 435.0621832706392 1469.4727554299675 447.90149344157265L1469.4727554299675 447.90149344157265Q1469.4727554299675 459.7897435998444 1473.2769954806145 468.4978868407785Q1477.0515149058656 477.2060300817125 1483.7089349944977 482.02077139581263Q1490.3366344577344 486.8355127099127 1498.7772920701073 486.8355127099127L1498.7772920701073 486.8355127099127Q1510.6655422283789 486.8355127099127 1516.8177116852848 481.0102701323595Q1522.9698811421904 475.18502755480637 1522.9698811421904 464.8125292917142L1522.9698811421904 464.8125292917142L1540.0889613701015 464.8125292917142Q1540.0889613701015 475.51195443415884 1535.0661756782315 483.8634501703447Q1530.013669360966 492.185225281135 1520.7705548629096 496.99996659523504Q1511.5274403648536 501.81470790933514 1498.9853364478768 501.81470790933514ZM1590.1682151618215 499.2587341253067L1573.4652236894494 499.2587341253067L1573.4652236894494 353.3304634325208L1590.1682151618215 353.3304634325208L1590.1682151618215 499.2587341253067ZM1587.5825207523972 458.3928742062475L1587.5825207523972 440.61994021963125L1639.8016595726058 396.9603415133782L1663.1323505082146 396.9603415133782L1587.5825207523972 458.3928742062475ZM1665.4802799144727 499.2587341253067L1644.9433277660587 499.2587341253067L1596.350105244123 434.64609451509966L1613.261141094264 431.64431135013604L1665.4802799144727 499.2587341253067Z " fill="#a4b494" transform="matrix(0.5253739891102966,0,0,0.5253739891102968,0,75.76268780387663)"/></g></svg>