<?xml version="1.0" encoding="UTF-8"?>
<svg version="1.1" xmlns="http://www.w3.org/2000/svg" width="38" height="38">
<path d="M0 0 C0.74636719 -0.01160156 1.49273438 -0.02320312 2.26171875 -0.03515625 C7.68133536 -0.00637952 11.0879185 0.98119184 15.046875 4.91015625 C19.00459561 9.93440546 19.67447848 12.20567106 19.75 18.625 C19.77578125 19.92953125 19.8015625 21.2340625 19.828125 22.578125 C19.42313777 27.2644058 18.18510969 30.52752297 15 34.01953125 C9.91947615 37.97545997 6.56049079 38.56773064 0.1875 38.6875 C-1.10800781 38.72488281 -2.40351563 38.76226562 -3.73828125 38.80078125 C-9.67986116 38.12826597 -13.64404778 34.8022044 -17.5 30.375 C-18.76864164 26.56907507 -18.72320072 22.96629359 -18.75 19 C-18.770625 18.24460937 -18.79125 17.48921875 -18.8125 16.7109375 C-18.84451548 12.13272442 -18.52899085 9.0656636 -15.5 5.375 C-14.84 5.375 -14.18 5.375 -13.5 5.375 C-13.5 4.715 -13.5 4.055 -13.5 3.375 C-9.20345029 -0.12020909 -5.27706808 -0.08202696 0 0 Z " fill="#E6E6E6" transform="translate(18.5,-0.375)"/>
<path d="M0 0 C0.74636719 -0.01160156 1.49273438 -0.02320312 2.26171875 -0.03515625 C7.68133536 -0.00637952 11.0879185 0.98119184 15.046875 4.91015625 C19.00459561 9.93440546 19.67447848 12.20567106 19.75 18.625 C19.77578125 19.92953125 19.8015625 21.2340625 19.828125 22.578125 C19.42313777 27.2644058 18.18510969 30.52752297 15 34.01953125 C9.91947615 37.97545997 6.56049079 38.56773064 0.1875 38.6875 C-1.10800781 38.72488281 -2.40351563 38.76226562 -3.73828125 38.80078125 C-9.67986116 38.12826597 -13.64404778 34.8022044 -17.5 30.375 C-18.76864164 26.56907507 -18.72320072 22.96629359 -18.75 19 C-18.770625 18.24460937 -18.79125 17.48921875 -18.8125 16.7109375 C-18.84451548 12.13272442 -18.52899085 9.0656636 -15.5 5.375 C-14.84 5.375 -14.18 5.375 -13.5 5.375 C-13.5 4.715 -13.5 4.055 -13.5 3.375 C-9.20345029 -0.12020909 -5.27706808 -0.08202696 0 0 Z M-11.8125 9.9375 C-15.07966522 14.65673865 -15.12434609 18.7298708 -14.5 24.375 C-12.33605984 28.78302625 -10.11803133 31.60639226 -5.5 33.375 C-0.15511896 34.03698068 4.10348339 34.04832051 9 31.6875 C13.39443074 27.62265156 14.68657624 24.91110427 14.9375 18.9375 C14.79099091 13.98948843 13.94763149 11.10216917 10.5 7.375 C6.78354428 4.18946653 3.43831709 3.90922958 -1.2890625 4.08984375 C-5.95188929 4.69123307 -8.71015127 6.49976222 -11.8125 9.9375 Z " fill="#8A3031" transform="translate(18.5,-0.375)"/>
<path d="M0 0 C0.74636719 -0.01160156 1.49273438 -0.02320312 2.26171875 -0.03515625 C7.68133536 -0.00637952 11.0879185 0.98119184 15.046875 4.91015625 C19.00459561 9.93440546 19.67447848 12.20567106 19.75 18.625 C19.77578125 19.92953125 19.8015625 21.2340625 19.828125 22.578125 C19.42313777 27.2644058 18.18510969 30.52752297 15 34.01953125 C9.91947615 37.97545997 6.56049079 38.56773064 0.1875 38.6875 C-1.10800781 38.72488281 -2.40351563 38.76226562 -3.73828125 38.80078125 C-9.67986116 38.12826597 -13.64404778 34.8022044 -17.5 30.375 C-18.76864164 26.56907507 -18.72320072 22.96629359 -18.75 19 C-18.770625 18.24460937 -18.79125 17.48921875 -18.8125 16.7109375 C-18.84451548 12.13272442 -18.52899085 9.0656636 -15.5 5.375 C-14.84 5.375 -14.18 5.375 -13.5 5.375 C-13.5 4.715 -13.5 4.055 -13.5 3.375 C-9.20345029 -0.12020909 -5.27706808 -0.08202696 0 0 Z M-14.375 7.3125 C-17.65574522 13.32719957 -18.74063554 18.79547283 -16.91796875 25.5234375 C-14.46127617 31.3791157 -10.23015384 34.79359406 -4.5 37.375 C0.96787014 38.59568688 5.74237323 37.14307376 10.5 34.375 C15.7875681 29.40405274 18.08634123 25.86155249 18.9375 18.6875 C18.84528682 13.20593856 16.12935997 9.31390027 12.5 5.375 C8.03307616 1.88199666 3.36661654 0.71191131 -2.2578125 0.984375 C-7.03466614 1.81657947 -11.00791904 3.83318301 -14.375 7.3125 Z " fill="#130304" transform="translate(18.5,-0.375)"/>
<path d="M0 0 C2.64 0 5.28 0 8 0 C8 3.3 8 6.6 8 10 C8.99 10 9.98 10 11 10 C10.39005934 13.06325753 9.42271989 15.20050634 7.625 17.75 C7.20476563 18.36359375 6.78453125 18.9771875 6.3515625 19.609375 C5.90554687 20.06828125 5.45953125 20.5271875 5 21 C4.01 21 3.02 21 2 21 C0.61328125 19.35546875 0.61328125 19.35546875 -0.6875 17.1875 C-1.12449219 16.47980469 -1.56148437 15.77210937 -2.01171875 15.04296875 C-3 13 -3 13 -3 10 C-2.01 10 -1.02 10 0 10 C0 6.7 0 3.4 0 0 Z " fill="#E02E2E" transform="translate(15,8)"/>
<path d="M0 0 C0.66 0 1.32 0 2 0 C1.96519531 1.02480469 1.93039062 2.04960937 1.89453125 3.10546875 C1.86637965 4.46612936 1.83908096 5.8268078 1.8125 7.1875 C1.78736328 7.86103516 1.76222656 8.53457031 1.73632812 9.22851562 C1.67063485 13.71755618 2.28160833 16.41935819 5 20 C8.96486567 23.59315951 13.22108175 23.50022882 18.3359375 23.35546875 C22.08369069 22.85540198 24.24202151 21.5458263 27 19 C29.61000207 15.51999724 29.5787947 11.21205301 30 7 C30.33 7 30.66 7 31 7 C31.55983773 16.51724138 31.55983773 16.51724138 28 21 C27.566875 21.556875 27.13375 22.11375 26.6875 22.6875 C22.29803229 26.10153044 17.37067168 26.37688924 12 26 C6.46992912 24.95119345 3.56468694 23.37947252 0 19 C-2.55560033 14.61897087 -2.46444788 9.93922453 -2 5 C-1 1.9375 -1 1.9375 0 0 Z " fill="#864041" transform="translate(3,9)"/>
<path d="M0 0 C4.9157402 4.75716793 4.9157402 4.75716793 5.25 9.6875 C5.13527328 14.98405034 3.86743019 19.01362521 0.16015625 22.95703125 C-5.14402737 27.80685277 -8.64323403 29.34189194 -15.9609375 29.30078125 C-19.35714071 28.79980875 -21.35049026 27.11960779 -24 25 C-23.34 24.67 -22.68 24.34 -22 24 C-21.278125 24.309375 -20.55625 24.61875 -19.8125 24.9375 C-14.90621035 26.7909872 -11.15687793 26.40490727 -6.25 24.6875 C-2.0887685 22.52686057 -0.47895361 21.43686082 1 17 C1.38455821 11.2655584 0.82473475 5.67005144 0 0 Z " fill="#AB2627" transform="translate(32,8)"/>
<path d="M0 0 C2.64 0 5.28 0 8 0 C8 3.3 8 6.6 8 10 C8.99 10 9.98 10 11 10 C10.625 11.9375 10.625 11.9375 10 14 C9.01 14.495 9.01 14.495 8 15 C8.33 14.01 8.66 13.02 9 12 C8.34 11.67 7.68 11.34 7 11 C7 7.7 7 4.4 7 1 C5.02 1 3.04 1 1 1 C1.01160156 1.69867188 1.02320313 2.39734375 1.03515625 3.1171875 C1.04869141 4.48230469 1.04869141 4.48230469 1.0625 5.875 C1.07410156 6.77992187 1.08570313 7.68484375 1.09765625 8.6171875 C1 11 1 11 0 13 C0.39938767 15.09821215 0.39938767 15.09821215 1 17 C-1 15.1875 -1 15.1875 -3 13 C-3 12.01 -3 11.02 -3 10 C-2.01 10 -1.02 10 0 10 C0 6.7 0 3.4 0 0 Z " fill="#4E2628" transform="translate(15,8)"/>
<path d="M0 0 C2.1519437 3.22791555 2.20086443 4.28400809 2 8 C1.443125 7.236875 0.88625 6.47375 0.3125 5.6875 C-4.02442031 0.64729531 -7.7901314 -0.35284943 -14.20703125 -0.88671875 C-15.09455078 -0.94279297 -15.09455078 -0.94279297 -16 -1 C-16 -1.33 -16 -1.66 -16 -2 C-5.35224154 -3.74656908 -5.35224154 -3.74656908 0 0 Z " fill="#903536" transform="translate(31,5)"/>
<path d="M0 0 C1.010625 0.33 2.02125 0.66 3.0625 1 C9.12600094 2.72022864 14.84642803 2.00466481 21 1 C17.66106847 4.83977126 15.11335584 4.91021324 10.125 5.3125 C5.66262569 5.27907398 3.40028369 3.80523404 0 1 C0 0.67 0 0.34 0 0 Z " fill="#D62929" transform="translate(8,32)"/>
<path d="M0 0 C4.88609272 4.72847682 4.88609272 4.72847682 5.16796875 7.875 C5.17441406 8.57625 5.18085937 9.2775 5.1875 10 C5.20167969 10.70125 5.21585938 11.4025 5.23046875 12.125 C5 14 5 14 3 16 C2.95101562 15.43152344 2.90203125 14.86304688 2.8515625 14.27734375 C2.36856919 9.28918871 1.52361837 4.77400422 0 0 Z " fill="#D92929" transform="translate(32,8)"/>
<path d="M0 0 C0.66 0.66 1.32 1.32 2 2 C-3.28 2.66 -8.56 3.32 -14 4 C-14 3.34 -14 2.68 -14 2 C-9.52621297 -0.30905137 -4.94517384 -0.66065191 0 0 Z " fill="#C92727" transform="translate(23,1)"/>
<path d="M0 0 C0.66 0 1.32 0 2 0 C1.01 3.96 0.02 7.92 -1 12 C-1.33 12 -1.66 12 -2 12 C-2.17835515 7.45194365 -1.99785435 4.1205746 0 0 Z " fill="#CB2727" transform="translate(3,9)"/>
</svg>
