<?xml version="1.0" encoding="UTF-8"?>
<svg version="1.1" xmlns="http://www.w3.org/2000/svg" width="38" height="38">
<path d="M0 0 C3.2492696 2.68064742 3.89987297 4.63078157 5 8.6875 C5.60919885 12.06789353 5.60919885 12.06789353 7.9375 13.125 C8.9584375 13.558125 8.9584375 13.558125 10 14 C11.8125 16.375 11.8125 16.375 13 19 C12.6875 21.3125 12.6875 21.3125 12 23 C11.34 23 10.68 23 10 23 C10 25.97 10 28.94 10 32 C8.13308826 33.01501998 6.25604656 34.01142079 4.375 35 C3.33085937 35.556875 2.28671875 36.11375 1.2109375 36.6875 C-3.54878507 38.63308003 -6.45121493 38.63308003 -11.2109375 36.6875 C-12.25507813 36.130625 -13.29921875 35.57375 -14.375 35 C-15.43460938 34.443125 -16.49421875 33.88625 -17.5859375 33.3125 C-18.38257813 32.879375 -19.17921875 32.44625 -20 32 C-20 29.03 -20 26.06 -20 23 C-20.99 22.67 -21.98 22.34 -23 22 C-22.47043997 18.18716777 -21.63927191 15.83477353 -19 13 C-17.948125 12.5978125 -17.948125 12.5978125 -16.875 12.1875 C-16.25625 11.795625 -15.6375 11.40375 -15 11 C-14.65458149 8.66842508 -14.32205743 6.33491639 -14 4 C-10.89466495 -1.26556813 -5.50819225 -1.04655653 0 0 Z " fill="#50452F" transform="translate(24,0)"/>
<path d="M0 0 C3.2492696 2.68064742 3.89987297 4.63078157 5 8.6875 C5.60919885 12.06789353 5.60919885 12.06789353 7.9375 13.125 C8.9584375 13.558125 8.9584375 13.558125 10 14 C11.8125 16.375 11.8125 16.375 13 19 C12.6875 21.3125 12.6875 21.3125 12 23 C11.34 23 10.68 23 10 23 C10 25.97 10 28.94 10 32 C8.13308826 33.01501998 6.25604656 34.01142079 4.375 35 C3.33085937 35.556875 2.28671875 36.11375 1.2109375 36.6875 C-3.54878507 38.63308003 -6.45121493 38.63308003 -11.2109375 36.6875 C-12.25507813 36.130625 -13.29921875 35.57375 -14.375 35 C-15.43460938 34.443125 -16.49421875 33.88625 -17.5859375 33.3125 C-18.38257813 32.879375 -19.17921875 32.44625 -20 32 C-20 29.03 -20 26.06 -20 23 C-20.99 22.67 -21.98 22.34 -23 22 C-22.47043997 18.18716777 -21.63927191 15.83477353 -19 13 C-17.948125 12.5978125 -17.948125 12.5978125 -16.875 12.1875 C-16.25625 11.795625 -15.6375 11.40375 -15 11 C-14.65458149 8.66842508 -14.32205743 6.33491639 -14 4 C-10.89466495 -1.26556813 -5.50819225 -1.04655653 0 0 Z M-14 13 C-17.16717283 14.58358642 -18.73268318 15.45263699 -20.3125 18.6875 C-20.539375 19.450625 -20.76625 20.21375 -21 21 C-20.505 21.350625 -20.01 21.70125 -19.5 22.0625 C-17.26936034 24.94374289 -17.80019379 27.47009026 -18 31 C-16.28133783 32.0384211 -14.54955402 33.05514635 -12.8125 34.0625 C-11.84957031 34.63097656 -10.88664063 35.19945313 -9.89453125 35.78515625 C-6.55676595 37.18602671 -5.37694301 37.15414508 -2 36 C-0.20391888 35.20028505 1.56816512 34.34455414 3.3125 33.4375 C4.63701172 32.75494141 4.63701172 32.75494141 5.98828125 32.05859375 C6.65214844 31.70925781 7.31601562 31.35992188 8 31 C8 28.69 8 26.38 8 24 C6.35 24.33 4.7 24.66 3 25 C5.64 23.68 8.28 22.36 11 21 C9.9802693 17.22699642 9.34127338 16.19793856 5.875 14.1875 C4.92625 13.795625 3.9775 13.40375 3 13 C2.29875 13.66 1.5975 14.32 0.875 15 C-2.54695128 17.38048785 -3.91739029 17.66654852 -8 17 C-11.375 15 -11.375 15 -14 13 Z " fill="#321F1E" transform="translate(24,0)"/>
<path d="M0 0 C3.80185823 1.08624521 5.38912969 1.65778867 7.5 5 C7.43957505 8.44422213 7.10093625 10.90417507 5.4375 13.9375 C2.24097829 15.69043126 -0.94932174 15.51780725 -4.5 15 C-6.5 14 -6.5 14 -7.5 12 C-8.2518797 5.23308271 -8.2518797 5.23308271 -5.9375 1.4375 C-3.5 0 -3.5 0 0 0 Z " fill="#863636" transform="translate(19.5,1)"/>
<path d="M0 0 C0 0.33 0 0.66 0 1 C-1.2375 1.0825 -2.475 1.165 -3.75 1.25 C-6.65893319 1.63099302 -7.93933195 1.95955463 -10.4375 3.625 C-12.26367833 6.03167418 -12.26367833 6.03167418 -12.5 9.5625 C-13 13 -13 13 -14.9375 14.9375 C-17 16 -17 16 -19 16 C-19.33 17.65 -19.66 19.3 -20 21 C-18.68 21.99 -17.36 22.98 -16 24 C-16.66 24 -17.32 24 -18 24 C-18 26.31 -18 28.62 -18 31 C-17.113125 31.268125 -16.22625 31.53625 -15.3125 31.8125 C-12 33 -12 33 -9.4375 34.6875 C-7.10129358 36.22855986 -7.10129358 36.22855986 -4.5625 35.8125 C-1.69696837 34.9039168 1.16146695 33.99018595 4 33 C4.33 33.66 4.66 34.32 5 35 C0.34854016 37.23270072 -2.73261946 38.46937054 -8 38 C-11.2109375 36.6875 -11.2109375 36.6875 -14.375 35 C-15.43460938 34.443125 -16.49421875 33.88625 -17.5859375 33.3125 C-18.38257813 32.879375 -19.17921875 32.44625 -20 32 C-20 29.03 -20 26.06 -20 23 C-20.99 22.67 -21.98 22.34 -23 22 C-22.47043997 18.18716777 -21.63927191 15.83477353 -19 13 C-17.948125 12.5978125 -17.948125 12.5978125 -16.875 12.1875 C-16.25625 11.795625 -15.6375 11.40375 -15 11 C-14.65458149 8.66842508 -14.32205743 6.33491639 -14 4 C-10.79132724 -1.44079293 -5.61958534 -0.38607838 0 0 Z " fill="#1B191A" transform="translate(24,0)"/>
<path d="M0 0 C0 2.31 0 4.62 0 7 C-1.62249941 7.83819158 -3.24808497 8.6704116 -4.875 9.5 C-5.77992187 9.9640625 -6.68484375 10.428125 -7.6171875 10.90625 C-10 12 -10 12 -12 12 C-12 8.37 -12 4.74 -12 1 C-11.113125 1.20625 -10.22625 1.4125 -9.3125 1.625 C-5.46076851 2.06104507 -3.43007511 0 0 0 Z " fill="#E0C161" transform="translate(32,24)"/>
<path d="M0 0 C1.0828125 0.495 1.0828125 0.495 2.1875 1 C5.0476701 2.01694937 6.99612163 2.24355771 10 2 C10.66 1.67 11.32 1.34 12 1 C12 4.63 12 8.26 12 12 C7.76570244 10.68938409 3.92592596 9.05643741 0 7 C0 4.69 0 2.38 0 0 Z " fill="#F1D989" transform="translate(6,24)"/>
<path d="M0 0 C4.85963179 0.60745397 8.7405518 2.72758967 13 5 C12.34 6.65 11.68 8.3 11 10 C8.69 9.67 6.38 9.34 4 9 C3.67 8.01 3.34 7.02 3 6 C0.49552484 4.78130071 0.49552484 4.78130071 -2 4 C-1.34 2.68 -0.68 1.36 0 0 Z " fill="#D1A551" transform="translate(5,17)"/>
<path d="M0 0 C0 1.32 0 2.64 0 4 C-1.43429001 4.67354499 -2.87257057 5.33859701 -4.3125 6 C-5.11300781 6.37125 -5.91351563 6.7425 -6.73828125 7.125 C-9 8 -9 8 -12 8 C-12.66 6.68 -13.32 5.36 -14 4 C-12.42466914 3.13116294 -10.83935491 2.28040932 -9.25 1.4375 C-8.36828125 0.96183594 -7.4865625 0.48617188 -6.578125 -0.00390625 C-3.79298812 -1.07998186 -2.73019786 -1.06528748 0 0 Z " fill="#E4B455" transform="translate(34,18)"/>
<path d="M0 0 C-0.66 0 -1.32 0 -2 0 C-2 2.97 -2 5.94 -2 9 C-3.98 9.66 -5.96 10.32 -8 11 C-8 10.34 -8 9.68 -8 9 C-6.68 8.67 -5.36 8.34 -4 8 C-4.33 6.02 -4.66 4.04 -5 2 C-5.7425 2.350625 -6.485 2.70125 -7.25 3.0625 C-10.21122875 4.0720098 -11.12062561 3.87980884 -14 3 C-12.42274653 2.29866401 -10.83788667 1.614417 -9.25 0.9375 C-7.92742188 0.36322266 -7.92742188 0.36322266 -6.578125 -0.22265625 C-3.84743691 -1.04600008 -2.63098653 -0.9773992 0 0 Z " fill="#2E2921" transform="translate(36,23)"/>
<path d="M0 0 C0.825 0.66 1.65 1.32 2.5 2 C6.34492481 4.61234126 9.45655064 4.31334134 14 4 C14 4.66 14 5.32 14 6 C11.6875 7.3125 11.6875 7.3125 8 8 C4.15208152 6.67513369 0.59156126 4.90442216 -3 3 C-2.01 2.01 -1.02 1.02 0 0 Z " fill="#CA903E" transform="translate(10,13)"/>
<path d="M0 0 C1.98 0.99 3.96 1.98 6 3 C3.25906335 4.8272911 0.86174676 5.93698178 -2.1875 7.125 C-3.08855469 7.47820313 -3.98960938 7.83140625 -4.91796875 8.1953125 C-5.94857422 8.59363281 -5.94857422 8.59363281 -7 9 C-7 8.34 -7 7.68 -7 7 C-5.68 6.67 -4.36 6.34 -3 6 C-2.814375 5.071875 -2.814375 5.071875 -2.625 4.125 C-2 2 -2 2 0 0 Z " fill="#815F30" transform="translate(27,13)"/>
<path d="M0 0 C1.1446875 0.2784375 1.1446875 0.2784375 2.3125 0.5625 C5.08967375 1.22819173 5.08967375 1.22819173 8 0 C7.814375 0.78375 7.62875 1.5675 7.4375 2.375 C6.74037734 4.97089775 6.74037734 4.97089775 8 7 C5.33333333 7 2.66666667 7 0 7 C0.2784375 6.1028125 0.2784375 6.1028125 0.5625 5.1875 C1.22093687 2.83591238 1.22093687 2.83591238 0 0 Z " fill="#CACAD5" transform="translate(15,5)"/>
<path d="M0 0 C0 0.33 0 0.66 0 1 C-1.2375 1.0825 -2.475 1.165 -3.75 1.25 C-6.65893319 1.63099302 -7.93933195 1.95955463 -10.4375 3.625 C-12.46510657 6.70696199 -12.72001908 9.36024802 -13 13 C-13.66 13 -14.32 13 -15 13 C-14.82033321 8.7957971 -14.64606219 5.15167608 -12.5625 1.4375 C-8.54254549 -0.81759643 -4.50589453 -0.30956527 0 0 Z " fill="#171117" transform="translate(24,0)"/>
<path d="M0 0 C1.65 0 3.3 0 5 0 C5.66 1.32 6.32 2.64 7 4 C4.75 5.125 4.75 5.125 2 6 C-0.3125 5.125 -0.3125 5.125 -2 4 C-1.34 2.68 -0.68 1.36 0 0 Z " fill="#A63D3B" transform="translate(16,1)"/>
<path d="M0 0 C2.31 0.66 4.62 1.32 7 2 C5.625 3.5 5.625 3.5 4 5 C3.34 5 2.68 5 2 5 C1.67 5.99 1.34 6.98 1 8 C0.67 8 0.34 8 0 8 C0 5.36 0 2.72 0 0 Z " fill="#EACA66" transform="translate(20,25)"/>
<path d="M0 0 C1.98 0.99 1.98 0.99 4 2 C3.34 2 2.68 2 2 2 C2 4.31 2 6.62 2 9 C2.66 9.33 3.32 9.66 4 10 C2.68 10 1.36 10 0 10 C0 6.7 0 3.4 0 0 Z " fill="#2A2724" transform="translate(4,22)"/>
<path d="M0 0 C1.80411967 2.75924185 2.0127245 3.88972103 1.625 7.25 C1.41875 8.1575 1.2125 9.065 1 10 C0.34 9.67 -0.32 9.34 -1 9 C-1.09765625 2.84765625 -1.09765625 2.84765625 -1 1 C-0.67 0.67 -0.34 0.34 0 0 Z " fill="#F15049" transform="translate(13,4)"/>
<path d="M0 0 C1.32 0.99 2.64 1.98 4 3 C3.67 4.65 3.34 6.3 3 8 C2.34 8 1.68 8 1 8 C1.04125 7.21625 1.0825 6.4325 1.125 5.625 C1.28728734 2.83883881 1.28728734 2.83883881 -1 1 C-0.67 0.67 -0.34 0.34 0 0 Z " fill="#E64C46" transform="translate(22,2)"/>
</svg>
